<svg width="35" height="41" viewBox="0 0 35 41" fill="none" xmlns="http://www.w3.org/2000/svg">
<path d="M29.585 3.39133C30.7222 2.12749 32.4393 0.222773 33.6816 0.533905C33.8316 0.557477 33.926 0.591448 34.0225 0.704803C34.5095 1.23265 34.6235 1.96952 34.3682 2.95871V2.96457C33.9283 4.31205 33.235 5.51778 32.248 6.64426C31.4413 7.56475 30.4222 8.44462 29.1348 9.33078L28.9805 9.13547C29.1478 8.98534 29.3195 8.82873 29.5039 8.66574C31.3042 7.0543 33.7723 4.84842 34.0684 2.30148C34.1069 1.91092 34.0719 1.23705 33.8145 0.986053C33.7394 0.913332 33.6494 0.883589 33.5381 0.894257C33.4887 0.907131 33.4411 0.919468 33.3896 0.932343C33.0549 1.02031 32.7118 1.11327 32.4629 1.30637C31.2549 2.22688 30.3319 3.45204 29.4414 4.63644C29.0317 5.1791 28.6094 5.74122 28.1611 6.27316C27.9831 6.48343 27.8752 6.67248 27.7529 6.89133C27.6886 7.00717 27.6198 7.12728 27.5361 7.26242C26.8324 8.47244 25.3547 11.1136 24.9854 11.7878C24.8802 12.0324 24.7273 12.2925 24.5664 12.5671C24.4163 12.8202 24.2619 13.084 24.1504 13.3327C22.9702 15.9377 21.8972 18.4851 21.7148 21.0193C21.8437 22.1543 22.5519 23.4435 23.8457 23.7868C24.3375 23.7942 24.914 23.7145 25.4785 23.5407C23.5757 22.0277 22.6568 20.1981 22.9531 18.4919C23.2192 16.9663 24.4378 15.7509 26.2959 15.1609C27.0469 14.8733 27.7167 14.7858 28.4033 14.8845C29.5447 14.8094 30.712 15.2211 31.7783 16.0749C31.9264 16.1457 32.0793 16.1589 32.2725 16.1159H32.2783C32.3191 16.1074 32.3643 16.0991 32.4072 16.0905C32.5746 16.0562 32.7187 16.0264 32.7959 16.1316C32.8683 16.2301 32.8018 16.3476 32.7803 16.3884L32.7764 16.3972L32.7695 16.406C32.4563 16.8029 32.0465 17.2769 31.6689 17.4099L31.6523 17.4167H31.6348C31.4202 17.4296 31.321 17.1802 31.248 16.9978C31.1793 16.8176 31.0273 16.5666 30.918 16.4187L30.8906 16.3845C30.7275 16.2107 30.3426 15.8755 30.0293 15.7038C29.875 15.6247 29.6865 15.6122 29.4873 15.5993C29.3844 15.5929 29.2769 15.5862 29.1719 15.5691H29.1582L29.1455 15.5622C28.1929 15.189 27.2055 15.4747 26.2529 15.7536C26.1588 15.7815 26.0666 15.8069 25.9746 15.8347C25.1464 16.2595 24.4018 17.1355 23.9297 18.2341C23.6057 18.97 23.5478 19.6565 23.7559 20.3366C23.9275 20.8988 24.2746 21.4531 24.8496 22.0818L24.8564 22.0876C25.4062 22.7833 25.7787 23.1727 26.0527 23.3269C26.5895 23.0901 27.0826 22.7596 27.4375 22.3239L27.4414 22.3191C27.5122 22.2418 27.5814 22.1627 27.6543 22.0769C27.8238 21.8816 27.9977 21.6819 28.1758 21.5232L28.1826 21.5193C28.2085 21.4998 28.2874 21.4395 28.373 21.4695C28.4203 21.4866 28.4549 21.5234 28.4678 21.5749L28.4717 21.5945V21.6159C28.4543 21.8316 28.2937 22.0177 28.1348 22.1862C28.0171 22.3579 27.8769 22.5213 27.7275 22.6804C27.6627 22.7687 27.5953 22.8582 27.5195 22.9372L27.5107 22.946C27.452 22.9969 27.3876 23.0455 27.3203 23.0945C27.257 23.1576 27.1941 23.2196 27.1328 23.2829C27.1006 23.3172 27.0646 23.3541 27.0303 23.3884C26.8674 23.5513 26.7685 23.6625 26.8047 23.7868C26.9098 23.8726 27.015 23.9608 27.1201 24.0466C28.4311 25.128 29.7872 26.2437 30.7979 27.5847C31.9608 29.1295 32.4219 30.6898 32.2031 32.3484C31.9693 34.1227 31.3153 35.6335 30.2598 36.8415C29.3028 37.9337 28.0555 38.7386 26.5557 39.2321C25.5043 39.5776 24.3559 39.7517 23.1865 39.7517V39.7448C22.3371 39.7448 21.4768 39.6531 20.6338 39.4665C18.619 39.0224 16.8271 38.0693 15.5869 36.782C14.6515 35.81 14.0466 34.6812 13.7891 33.4304C13.508 32.0636 13.6557 30.5893 14.2285 29.0466C14.4538 27.993 15.188 27.2894 16.0527 26.5427C16.9647 25.6587 18.2368 25.2164 19.7324 25.2614C20.9619 25.2979 22.3309 25.665 23.584 26.2937C23.6869 26.3258 23.7667 26.2764 23.8096 26.24C24.228 25.7143 24.6805 25.2589 25.1611 24.7761C25.3521 24.583 25.5497 24.3853 25.7471 24.1794C25.824 24.0981 25.8627 24.0212 25.8564 23.9548C25.854 23.9216 25.8392 23.8876 25.8164 23.8513C25.1344 24.1047 24.4539 24.276 24.0498 24.3259H24.041L24.0498 24.3279H24.041C23.2063 24.3128 22.4896 23.9046 21.9639 23.1472C21.5327 22.5249 21.2511 21.6839 21.1953 20.8386V20.8327C21.1506 18.3341 22.0283 15.3429 23.8057 11.9421C23.1343 12.1381 22.1392 12.3973 21.2236 12.6316C20.3289 12.8612 19.4807 13.0784 19.2168 13.1706C19.1272 13.235 19.093 13.3675 19.0566 13.5066C19.0395 13.5751 19.0198 13.6442 18.9941 13.7107L18.9854 13.7282C17.728 15.9211 16.0073 18.9228 13.8359 21.2273C12.6751 22.4568 11.4795 23.3819 10.2822 23.9763C9.14289 24.5406 7.96465 24.8239 6.76953 24.8239L6.76758 24.8132C6.50367 24.8132 6.2395 24.8001 5.97559 24.7722H5.96973C3.10731 24.3323 1.14989 22.0253 0.600586 18.4441C0.251084 16.177 0.823462 13.7063 2.17188 11.6599C2.48872 10.8845 3.42405 10.0585 4.62402 9.4968C5.95653 8.87453 7.37761 8.69621 8.52344 9.00949L8.55762 9.01828L8.58105 9.0466C8.65829 9.13257 8.82535 9.46851 8.69727 9.60812C8.6565 9.65318 8.56171 9.71128 8.39648 9.58469L8.38574 9.5759L8.37695 9.56516C7.52849 8.59144 4.76783 9.67273 3.76953 10.4128L3.77246 10.4167C2.26832 11.7471 1.37349 13.7323 1.24902 16.0046C1.17821 17.3264 1.37106 18.7043 1.80664 19.9939C2.24647 21.2896 2.92449 22.4653 3.76758 23.3943C4.43061 23.9436 5.21228 24.294 5.96973 24.3777C11.5613 24.8237 14.7752 19.3623 17.3564 14.9743C17.5216 14.6955 17.6831 14.4212 17.8418 14.153C17.8933 14.0587 17.9405 13.9577 17.9941 13.8484C18.0864 13.6575 18.1807 13.4621 18.29 13.2927C18.3179 13.2412 18.3571 13.2089 18.3936 13.1853L18.4102 13.1491C18.423 13.1212 18.445 13.0799 18.4707 13.0349C18.5136 12.9534 18.6036 12.7867 18.6104 12.737L18.6143 12.7048C18.595 12.6215 18.6523 12.5548 18.6719 12.531L18.6768 12.5261C18.8226 12.3736 19.0173 12.0559 19.1523 11.8093C20.2016 9.89535 21.4252 8.04606 22.6074 6.25656L22.6416 6.2048C22.7767 6.02251 22.846 5.83843 22.9189 5.64328C22.9962 5.4373 23.0754 5.22465 23.2363 5.01437L23.2471 5.00363C24.189 4.0402 25.3755 3.0658 26.6758 2.1882L26.6846 2.1843C26.7489 2.14783 26.8814 2.07272 26.9629 2.17551C27.0464 2.28263 26.9335 2.40452 26.8584 2.48605C25.425 3.97949 23.7766 5.79974 22.4033 7.9841L22.3047 8.13449C21.7769 8.93688 21.2298 9.7673 20.79 10.5954C20.6656 10.8442 20.4597 11.2601 20.5537 11.5368V11.5417C20.5537 11.5417 20.666 11.7114 21.9062 11.6384C22.6334 11.5955 23.4782 11.4899 23.9824 11.4255C24.0196 11.4207 24.0553 11.4161 24.0889 11.4118C25.7047 8.43868 27.6988 5.71139 29.1172 3.91086L29.1582 3.86203C29.2827 3.729 29.4305 3.56513 29.585 3.39133ZM26.2471 24.2116C26.2149 24.2159 26.1929 24.2269 26.1758 24.2527C25.9483 24.6603 25.6033 25.0258 25.2686 25.3777C24.8652 25.8025 24.4484 26.2401 24.2617 26.74C24.3154 26.8921 24.4827 27.0379 24.6328 27.1687C24.665 27.1966 24.6955 27.2228 24.7256 27.2507C25.6803 27.9867 26.1309 29.2674 25.9014 30.5954C25.6611 32.3956 24.7963 34.3544 23.0928 34.4489H23.0625L23.0342 34.4382C22.9442 34.3997 22.8522 34.3652 22.7559 34.3288C22.3697 34.1829 21.9296 34.0182 21.6807 33.6257C20.4469 31.8877 20.9168 29.686 23.0752 27.0876C23.2061 26.8838 23.1093 26.785 23.0234 26.7292C21.5473 25.7939 19.6725 25.551 18.25 26.113L18.2471 26.1179C16.0159 27.0922 14.8014 29.9282 14.752 32.2282C14.7112 33.8633 15.3101 35.3788 16.4795 36.6062C17.5416 37.7218 19.061 38.5718 20.7539 38.9987C22.5605 39.4557 24.4465 39.4101 26.0664 38.8737C27.856 38.2794 29.2317 37.1227 30.0449 35.5241L30.0508 35.5134C31.0593 33.9191 31.4412 32.0396 31.1279 30.2243C30.8082 28.3641 29.7743 26.7487 28.2188 25.6716H28.2148L28.1738 25.6364C28.073 25.5806 27.916 25.4392 27.6543 25.1989C27.2381 24.8171 26.5433 24.1778 26.2471 24.2116ZM23.8369 27.448C23.3328 27.5168 22.8246 28.0573 22.4385 28.9323C22.0652 29.7776 21.8505 30.8356 21.8633 31.7624C21.8719 32.3933 22.0133 33.8704 23.1377 33.9734C23.8608 34.0141 24.7381 33.222 25.0664 31.364C25.2188 30.4971 25.1953 29.5932 25 28.8894C24.8498 28.3466 24.5279 27.6604 23.8457 27.448H23.8369ZM2.31055 11.7478C2.31228 11.7451 2.3137 11.7417 2.31543 11.739L2.26953 11.7204L2.31055 11.7478Z" fill="white"/>
<path d="M29.585 3.39133L29.2133 3.05687L29.2113 3.05914L29.585 3.39133ZM33.6816 0.533905L33.5602 1.01893L33.5819 1.02437L33.604 1.02784L33.6816 0.533905ZM34.0225 0.704803L33.6416 1.02876L33.6481 1.03645L33.655 1.04388L34.0225 0.704803ZM34.3682 2.95871L33.884 2.83374L33.8682 2.89522V2.95871H34.3682ZM34.3682 2.96457L34.8435 3.11973L34.8682 3.04411V2.96457H34.3682ZM32.248 6.64426L32.6241 6.97382L32.6241 6.97376L32.248 6.64426ZM29.1348 9.33078L28.7424 9.64073L29.0326 10.0081L29.4183 9.74264L29.1348 9.33078ZM28.9805 9.13547L28.6465 8.76335L28.2971 9.07697L28.5881 9.44542L28.9805 9.13547ZM29.5039 8.66574L29.835 9.04041L29.8374 9.03829L29.5039 8.66574ZM34.0684 2.30148L34.5651 2.35923L34.5659 2.35064L34.0684 2.30148ZM33.8145 0.986053L34.1635 0.628052L34.1625 0.627075L33.8145 0.986053ZM33.5381 0.894257L33.4904 0.396535L33.4506 0.40035L33.4119 0.410448L33.5381 0.894257ZM33.3896 0.932343L33.2684 0.447236L33.2626 0.448765L33.3896 0.932343ZM32.4629 1.30637L32.766 1.70407L32.7694 1.70141L32.4629 1.30637ZM29.4414 4.63644L29.8405 4.9377L29.8411 4.93691L29.4414 4.63644ZM28.1611 6.27316L28.5427 6.59631L28.5435 6.59536L28.1611 6.27316ZM27.7529 6.89133L27.3165 6.64742L27.3159 6.64851L27.7529 6.89133ZM27.5361 7.26242L27.1108 6.99915L27.1039 7.01106L27.5361 7.26242ZM24.9854 11.7878L24.5468 11.5476L24.5354 11.5685L24.526 11.5904L24.9854 11.7878ZM24.5664 12.5671L24.9964 12.8222L24.9978 12.8199L24.5664 12.5671ZM24.1504 13.3327L24.6058 13.5391L24.6066 13.5373L24.1504 13.3327ZM21.7148 21.0193L21.2161 20.9834L21.2128 21.0296L21.218 21.0756L21.7148 21.0193ZM23.8457 23.7868L23.7175 24.2701L23.7768 24.2859L23.8382 24.2868L23.8457 23.7868ZM25.4785 23.5407L25.6256 24.0186L26.5319 23.7396L25.7897 23.1494L25.4785 23.5407ZM22.9531 18.4919L22.4606 18.406L22.4605 18.4063L22.9531 18.4919ZM26.2959 15.1609L26.4472 15.6374L26.4611 15.633L26.4747 15.6278L26.2959 15.1609ZM28.4033 14.8845L28.3322 15.3794L28.3839 15.3868L28.4361 15.3834L28.4033 14.8845ZM31.7783 16.0749L31.4658 16.4652L31.5107 16.5012L31.5626 16.526L31.7783 16.0749ZM32.2725 16.1159V15.6159H32.2176L32.164 15.6278L32.2725 16.1159ZM32.2783 16.1159V16.6159H32.3304L32.3813 16.6052L32.2783 16.1159ZM32.4072 16.0905L32.5053 16.5808L32.5077 16.5803L32.4072 16.0905ZM32.7959 16.1316L32.393 16.4276L32.393 16.4277L32.7959 16.1316ZM32.7803 16.3884L32.3378 16.1555L32.3301 16.1702L32.3234 16.1853L32.7803 16.3884ZM32.7764 16.3972L33.171 16.7042L33.2085 16.656L33.2333 16.6003L32.7764 16.3972ZM32.7695 16.406L33.162 16.7157L33.1642 16.7129L32.7695 16.406ZM31.6689 17.4099L31.5028 16.9383L31.4906 16.9426L31.4786 16.9475L31.6689 17.4099ZM31.6523 17.4167V17.9167H31.7513L31.8427 17.8791L31.6523 17.4167ZM31.6348 17.4167V16.9167H31.6198L31.6048 16.9176L31.6348 17.4167ZM31.248 16.9978L30.7808 17.176L30.7838 17.1835L31.248 16.9978ZM30.918 16.4187L31.3201 16.1215L31.3144 16.1138L31.3084 16.1063L30.918 16.4187ZM30.8906 16.3845L31.2811 16.0721L31.2687 16.0567L31.2553 16.0424L30.8906 16.3845ZM30.0293 15.7038L30.2697 15.2652L30.2574 15.2589L30.0293 15.7038ZM29.4873 15.5993L29.5195 15.1004L29.5185 15.1003L29.4873 15.5993ZM29.1719 15.5691L29.2523 15.0756L29.2124 15.0691H29.1719V15.5691ZM29.1582 15.5691L28.9212 16.0093L29.0321 16.0691H29.1582V15.5691ZM29.1455 15.5622L29.3826 15.122L29.356 15.1077L29.3279 15.0967L29.1455 15.5622ZM26.2529 15.7536L26.1124 15.2738L26.1113 15.2741L26.2529 15.7536ZM25.9746 15.8347L25.8299 15.3561L25.7866 15.3692L25.7464 15.3898L25.9746 15.8347ZM23.9297 18.2341L24.3873 18.4356L24.3891 18.4315L23.9297 18.2341ZM23.7559 20.3366L24.2341 20.1906L24.234 20.1904L23.7559 20.3366ZM24.8496 22.0818L24.4807 22.4192L24.5012 22.4416L24.5242 22.4614L24.8496 22.0818ZM24.8564 22.0876L25.2487 21.7776L25.2187 21.7395L25.1818 21.708L24.8564 22.0876ZM26.0527 23.3269L25.8076 23.7627L26.0257 23.8853L26.2545 23.7843L26.0527 23.3269ZM27.4375 22.3239L27.8251 22.6398L27.8279 22.6363L27.4375 22.3239ZM27.4414 22.3191L27.0728 21.9812L27.0615 21.9936L27.051 22.0067L27.4414 22.3191ZM27.6543 22.0769L27.2767 21.7491L27.2733 21.753L27.6543 22.0769ZM28.1758 21.5232L27.9277 21.089L27.8822 21.1151L27.843 21.15L28.1758 21.5232ZM28.1826 21.5193L28.4307 21.9534L28.4577 21.9379L28.4826 21.9192L28.1826 21.5193ZM28.373 21.4695L28.5439 20.9995L28.5379 20.9974L28.373 21.4695ZM28.4678 21.5749L28.9581 21.4769L28.9557 21.4652L28.9528 21.4537L28.4678 21.5749ZM28.4717 21.5945H28.9717V21.5449L28.962 21.4964L28.4717 21.5945ZM28.4717 21.6159L28.9701 21.6561L28.9717 21.6361V21.6159H28.4717ZM28.1348 22.1862L27.771 21.8432L27.7443 21.8715L27.7223 21.9036L28.1348 22.1862ZM27.7275 22.6804L27.363 22.3381L27.3424 22.3602L27.3245 22.3845L27.7275 22.6804ZM27.5195 22.9372L27.8732 23.2909L27.8804 23.2833L27.5195 22.9372ZM27.5107 22.946L27.8382 23.3239L27.8517 23.3122L27.8643 23.2996L27.5107 22.946ZM27.3203 23.0945L27.0262 22.6901L26.9948 22.713L26.9673 22.7404L27.3203 23.0945ZM27.1328 23.2829L26.7735 22.9352L26.7681 22.9409L27.1328 23.2829ZM27.0303 23.3884L26.6767 23.0348L26.6767 23.0348L27.0303 23.3884ZM26.8047 23.7868L26.3246 23.9267L26.3681 24.0759L26.4885 24.1742L26.8047 23.7868ZM27.1201 24.0466L27.4383 23.6609L27.4363 23.6593L27.1201 24.0466ZM30.7979 27.5847L31.1973 27.284L31.1971 27.2838L30.7979 27.5847ZM32.2031 32.3484L31.7074 32.283L31.7074 32.283L32.2031 32.3484ZM30.2598 36.8415L30.6358 37.171L30.6363 37.1705L30.2598 36.8415ZM26.5557 39.2321L26.7117 39.7072L26.7119 39.7071L26.5557 39.2321ZM23.1865 39.7517H22.6865V40.2517H23.1865V39.7517ZM23.1865 39.7448H23.6865V39.2449L23.1865 39.2448L23.1865 39.7448ZM20.6338 39.4665L20.7418 38.9783L20.7414 38.9782L20.6338 39.4665ZM15.5869 36.782L15.2267 37.1287L15.2268 37.1289L15.5869 36.782ZM13.7891 33.4304L13.2993 33.5311L13.2993 33.5312L13.7891 33.4304ZM14.2285 29.0466L14.6972 29.2207L14.7099 29.1866L14.7175 29.1512L14.2285 29.0466ZM16.0527 26.5427L16.3795 26.9211L16.3904 26.9117L16.4008 26.9017L16.0527 26.5427ZM19.7324 25.2614L19.7174 25.7612L19.7176 25.7612L19.7324 25.2614ZM23.584 26.2937L23.3598 26.7406L23.3962 26.7588L23.4351 26.771L23.584 26.2937ZM23.8096 26.24L24.1334 26.6209L24.1705 26.5894L24.2008 26.5513L23.8096 26.24ZM25.1611 24.7761L25.5155 25.1289L25.5167 25.1277L25.1611 24.7761ZM25.7471 24.1794L26.1081 24.5254L26.1103 24.5231L25.7471 24.1794ZM25.8564 23.9548L25.3577 23.9922L25.3587 24.002L25.8564 23.9548ZM25.8164 23.8513L26.2397 23.5852L26.0234 23.241L25.6423 23.3826L25.8164 23.8513ZM24.0498 24.3259V24.8259H24.0805L24.111 24.8221L24.0498 24.3259ZM24.041 24.3259V23.8259L23.9326 24.814L24.041 24.3259ZM24.0498 24.3279V24.8279L24.1583 23.8398L24.0498 24.3279ZM24.041 24.3279L24.032 24.8279H24.041V24.3279ZM21.9639 23.1472L21.5529 23.432L21.5531 23.4323L21.9639 23.1472ZM21.1953 20.8386H20.6953V20.8551L20.6964 20.8715L21.1953 20.8386ZM21.1953 20.8327L21.6954 20.8327L21.6952 20.8238L21.1953 20.8327ZM23.8057 11.9421L24.2488 12.1737L24.7927 11.1331L23.6655 11.4621L23.8057 11.9421ZM21.2236 12.6316L21.0997 12.1472L21.0994 12.1473L21.2236 12.6316ZM19.2168 13.1706L19.0518 12.6986L18.9836 12.7225L18.925 12.7646L19.2168 13.1706ZM19.0566 13.5066L18.5729 13.38L18.5716 13.3853L19.0566 13.5066ZM18.9941 13.7107L19.4414 13.9343L19.4519 13.9131L19.4605 13.8911L18.9941 13.7107ZM18.9854 13.7282L19.4191 13.977L19.4262 13.9646L19.4326 13.9518L18.9854 13.7282ZM13.8359 21.2273L14.1995 21.5705L14.1998 21.5702L13.8359 21.2273ZM10.2822 23.9763L10.5041 24.4243L10.5045 24.4241L10.2822 23.9763ZM6.76953 24.8239L6.2776 24.9134L6.35224 25.3239H6.76953V24.8239ZM6.76758 24.8132L7.25951 24.7238L7.18487 24.3132L6.76758 24.3132L6.76758 24.8132ZM5.97559 24.7722L6.02814 24.275L6.00194 24.2722H5.97559V24.7722ZM5.96973 24.7722L5.89378 25.2664L5.93153 25.2722H5.96973V24.7722ZM0.600586 18.4441L1.09481 18.3683L1.09475 18.3679L0.600586 18.4441ZM2.17188 11.6599L2.58939 11.935L2.61625 11.8942L2.63472 11.849L2.17188 11.6599ZM4.62402 9.4968L4.41246 9.04376L4.41204 9.04396L4.62402 9.4968ZM8.52344 9.00949L8.39156 9.49185L8.39892 9.49374L8.52344 9.00949ZM8.55762 9.01828L8.94281 8.6995L8.83933 8.57445L8.68214 8.53403L8.55762 9.01828ZM8.58105 9.0466L8.19586 9.36538L8.20233 9.3732L8.20911 9.38075L8.58105 9.0466ZM8.69727 9.60812L8.32881 9.27011L8.3265 9.27267L8.69727 9.60812ZM8.39648 9.58469L8.07987 9.97166L8.08604 9.97672L8.09238 9.98157L8.39648 9.58469ZM8.38574 9.5759L7.99876 9.89252L8.03043 9.93121L8.06912 9.96288L8.38574 9.5759ZM8.37695 9.56516L8.76393 9.24854L8.75902 9.24253L8.75392 9.23668L8.37695 9.56516ZM3.76953 10.4128L3.47176 10.0111L3.06786 10.3106L3.36953 10.7128L3.76953 10.4128ZM3.77246 10.4167L4.10371 10.7912L4.44919 10.4857L4.17246 10.1167L3.77246 10.4167ZM1.24902 16.0046L0.749772 15.9773L0.749739 15.9779L1.24902 16.0046ZM1.80664 19.9939L1.33293 20.1539L1.33317 20.1546L1.80664 19.9939ZM3.76758 23.3943L3.39732 23.7303L3.42121 23.7566L3.44859 23.7793L3.76758 23.3943ZM5.96973 24.3777L5.91482 24.8746L5.92238 24.8755L5.92997 24.8761L5.96973 24.3777ZM17.3564 14.9743L16.9262 14.7195L16.9255 14.7208L17.3564 14.9743ZM17.8418 14.153L18.2721 14.4078L18.2765 14.4002L18.2807 14.3925L17.8418 14.153ZM17.9941 13.8484L18.4431 14.0684L18.4443 14.0659L17.9941 13.8484ZM18.29 13.2927L18.7101 13.5638L18.7205 13.5477L18.7297 13.5308L18.29 13.2927ZM18.3936 13.1853L18.6652 13.6051L18.7872 13.5261L18.8479 13.394L18.3936 13.1853ZM18.4102 13.1491L17.9562 12.9396L17.9558 12.9404L18.4102 13.1491ZM18.4707 13.0349L18.9048 13.283L18.9091 13.2754L18.9132 13.2678L18.4707 13.0349ZM18.6104 12.737L19.1059 12.804L19.1067 12.7972L18.6104 12.737ZM18.6143 12.7048L19.1106 12.765L19.1212 12.6779L19.1015 12.5924L18.6143 12.7048ZM18.6719 12.531L18.3183 12.1774L18.3008 12.1949L18.2851 12.2141L18.6719 12.531ZM18.6768 12.5261L19.0304 12.8797L19.038 12.8717L18.6768 12.5261ZM19.1523 11.8093L18.7139 11.5689L18.7138 11.5691L19.1523 11.8093ZM22.6074 6.25656L23.0246 6.53218L23.0247 6.53209L22.6074 6.25656ZM22.6416 6.2048L22.2399 5.90711L22.2318 5.91798L22.2244 5.92927L22.6416 6.2048ZM22.9189 5.64328L22.4508 5.46772L22.4506 5.46828L22.9189 5.64328ZM23.2363 5.01437L22.8828 4.66082L22.8594 4.68422L22.8393 4.7105L23.2363 5.01437ZM23.2471 5.00363L23.6006 5.35721L23.6046 5.35318L23.2471 5.00363ZM26.6758 2.1882L26.4727 1.7313L26.4325 1.74916L26.3961 1.77376L26.6758 2.1882ZM26.6846 2.1843L26.8876 2.6412L26.9099 2.63131L26.9311 2.61931L26.6846 2.1843ZM26.9629 2.17551L27.3572 1.86798L27.3546 1.86476L26.9629 2.17551ZM26.8584 2.48605L27.2192 2.83235L27.2262 2.8248L26.8584 2.48605ZM22.4033 7.9841L22.8215 8.25836L22.8266 8.25022L22.4033 7.9841ZM22.3047 8.13449L22.7224 8.40926L22.7228 8.4087L22.3047 8.13449ZM20.79 10.5954L20.3483 10.3608L20.3428 10.3718L20.79 10.5954ZM20.5537 11.5368H21.0537V11.4542L21.0271 11.376L20.5537 11.5368ZM20.5537 11.5417H20.0537V11.6922L20.1368 11.8177L20.5537 11.5417ZM21.9062 11.6384L21.9356 12.1375L21.9357 12.1375L21.9062 11.6384ZM23.9824 11.4255L24.0457 11.9215L24.0463 11.9214L23.9824 11.4255ZM24.0889 11.4118L24.1518 11.9079L24.4059 11.8756L24.5282 11.6506L24.0889 11.4118ZM29.1172 3.91086L28.7343 3.58926L28.7293 3.59528L28.7244 3.60146L29.1172 3.91086ZM29.1582 3.86203L28.7931 3.52045L28.7839 3.53021L28.7754 3.54043L29.1582 3.86203ZM26.2471 24.2116L26.1903 23.7148L26.181 23.716L26.2471 24.2116ZM26.1758 24.2527L25.7598 23.9753L25.7488 23.9918L25.7391 24.0091L26.1758 24.2527ZM25.2686 25.3777L24.9063 25.033L24.906 25.0334L25.2686 25.3777ZM24.2617 26.74L23.7933 26.5651L23.7298 26.7351L23.7902 26.9062L24.2617 26.74ZM24.6328 27.1687L24.3043 27.5456L24.3053 27.5465L24.6328 27.1687ZM24.7256 27.2507L24.3854 27.6171L24.4022 27.6327L24.4203 27.6467L24.7256 27.2507ZM25.9014 30.5954L25.4087 30.5103L25.407 30.5197L25.4058 30.5293L25.9014 30.5954ZM23.0928 34.4489V34.9489H23.1066L23.1205 34.9482L23.0928 34.4489ZM23.0625 34.4489L22.8852 34.9164L22.9709 34.9489H23.0625V34.4489ZM23.0342 34.4382L22.8373 34.8978L22.847 34.902L22.8569 34.9057L23.0342 34.4382ZM22.7559 34.3288L22.5792 34.7966L22.5792 34.7966L22.7559 34.3288ZM21.6807 33.6257L22.1029 33.3579L22.0959 33.3469L22.0884 33.3363L21.6807 33.6257ZM23.0752 27.0876L23.4598 27.4071L23.4794 27.3835L23.4959 27.3578L23.0752 27.0876ZM23.0234 26.7292L23.2959 26.31L23.2911 26.3069L23.0234 26.7292ZM18.25 26.113L18.0663 25.648L17.9085 25.7103L17.8213 25.8558L18.25 26.113ZM18.2471 26.1179L18.4472 26.5761L18.5936 26.5122L18.6758 26.3751L18.2471 26.1179ZM14.752 32.2282L15.2518 32.2407L15.2518 32.239L14.752 32.2282ZM16.4795 36.6062L16.8416 36.2614L16.8415 36.2613L16.4795 36.6062ZM20.7539 38.9987L20.8765 38.514L20.8762 38.5139L20.7539 38.9987ZM26.0664 38.8737L26.2236 39.3484L26.224 39.3483L26.0664 38.8737ZM30.0449 35.5241L29.606 35.2847L29.6025 35.291L29.5993 35.2974L30.0449 35.5241ZM30.0508 35.5134L29.6282 35.2461L29.6196 35.2598L29.6118 35.274L30.0508 35.5134ZM31.1279 30.2243L30.6352 30.309L30.6352 30.3094L31.1279 30.2243ZM28.2188 25.6716L28.5034 25.2605L28.375 25.1716H28.2188V25.6716ZM28.2148 25.6716L27.8894 26.0512L28.0299 26.1716H28.2148V25.6716ZM28.1738 25.6364L28.4992 25.2568L28.4605 25.2236L28.4159 25.199L28.1738 25.6364ZM27.6543 25.1989L27.9924 24.8306L27.9923 24.8305L27.6543 25.1989ZM23.8369 27.448V26.948H23.8029L23.7693 26.9526L23.8369 27.448ZM22.4385 28.9323L22.8959 29.1343L22.8959 29.1342L22.4385 28.9323ZM21.8633 31.7624L22.3632 31.7556L22.3632 31.7555L21.8633 31.7624ZM23.1377 33.9734L23.0921 34.4713L23.1008 34.4721L23.1096 34.4726L23.1377 33.9734ZM25.0664 31.364L25.5588 31.451L25.5589 31.4505L25.0664 31.364ZM25 28.8894L24.5181 29.0228L24.5182 29.023L25 28.8894ZM23.8457 27.448L23.9943 26.9706L23.9217 26.948H23.8457V27.448ZM2.31055 11.7478L2.0332 12.1638L2.45703 12.4463L2.73165 12.0173L2.31055 11.7478ZM2.31543 11.739L2.73619 12.0091L3.06206 11.5015L2.50282 11.2754L2.31543 11.739ZM2.26953 11.7204L2.45693 11.2569L1.99218 12.1365L2.26953 11.7204ZM29.585 3.39133L29.9566 3.72577C30.5304 3.0881 31.2186 2.32569 31.9107 1.7588C32.2561 1.47585 32.5827 1.25848 32.8777 1.12951C33.1741 0.999873 33.3959 0.97778 33.5602 1.01893L33.6816 0.533905L33.8031 0.0488831C33.3462 -0.0655362 32.8875 0.0337862 32.477 0.213277C32.065 0.393426 31.6583 0.672885 31.277 0.985201C30.5157 1.60885 29.7767 2.43071 29.2133 3.05688L29.585 3.39133ZM33.6816 0.533905L33.604 1.02784C33.6322 1.03227 33.6482 1.03575 33.6574 1.03817C33.6658 1.04036 33.6649 1.04078 33.6592 1.03807C33.6527 1.03502 33.6458 1.03076 33.6403 1.02641C33.6353 1.02249 33.6357 1.02187 33.6416 1.02876L34.0225 0.704803L34.4033 0.38085C34.3154 0.277458 34.2124 0.193228 34.0851 0.133297C33.9665 0.0774719 33.8501 0.0542492 33.7593 0.0399677L33.6816 0.533905ZM34.0225 0.704803L33.655 1.04388C33.9828 1.39914 34.1162 1.93422 33.884 2.83374L34.3682 2.95871L34.8523 3.08368C35.1308 2.00483 35.0363 1.06617 34.3899 0.365726L34.0225 0.704803ZM34.3682 2.95871H33.8682V2.96457H34.3682H34.8682V2.95871H34.3682ZM34.3682 2.96457L33.8928 2.80941C33.475 4.08949 32.8167 5.23651 31.872 6.31476L32.248 6.64426L32.6241 6.97376C33.6534 5.79904 34.3816 4.53461 34.8435 3.11973L34.3682 2.96457ZM32.248 6.64426L31.872 6.31469C31.0988 7.19691 30.1133 8.0502 28.8513 8.91892L29.1348 9.33078L29.4183 9.74264C30.731 8.83904 31.7837 7.93259 32.6241 6.97382L32.248 6.64426ZM29.1348 9.33078L29.5271 9.02083L29.3728 8.82552L28.9805 9.13547L28.5881 9.44542L28.7424 9.64073L29.1348 9.33078ZM28.9805 9.13547L29.3144 9.50759C29.4858 9.35378 29.6522 9.20193 29.835 9.04041L29.5039 8.66574L29.1728 8.29108C28.9867 8.45553 28.8097 8.6169 28.6465 8.76335L28.9805 9.13547ZM29.5039 8.66574L29.8374 9.03829C30.7329 8.23667 31.8293 7.25746 32.7367 6.1516C33.6419 5.04852 34.4009 3.77067 34.565 2.35922L34.0684 2.30148L33.5717 2.24374C33.4397 3.37923 32.8166 4.4778 31.9637 5.51725C31.113 6.55393 30.0751 7.48338 29.1704 8.29319L29.5039 8.66574ZM34.0684 2.30148L34.5659 2.35064C34.5887 2.12019 34.5899 1.81311 34.5472 1.51956C34.5089 1.25574 34.419 0.877172 34.1635 0.628053L33.8145 0.986053L33.4654 1.34405C33.4576 1.33641 33.475 1.351 33.4995 1.41682C33.5225 1.47872 33.5429 1.56213 33.5576 1.66331C33.5872 1.86708 33.5866 2.09222 33.5708 2.25233L34.0684 2.30148ZM33.8145 0.986053L34.1625 0.627075C33.9735 0.443874 33.7351 0.373099 33.4904 0.396535L33.5381 0.894257L33.5858 1.39198C33.584 1.39215 33.5631 1.39361 33.5325 1.38345C33.5006 1.37288 33.478 1.35628 33.4664 1.34503L33.8145 0.986053ZM33.5381 0.894257L33.4119 0.410448C33.3629 0.423224 33.3173 0.435037 33.2684 0.447271L33.3896 0.932343L33.5109 1.41741C33.565 1.4039 33.6146 1.39104 33.6643 1.37807L33.5381 0.894257ZM33.3896 0.932343L33.2626 0.448765C32.9505 0.53079 32.5006 0.644252 32.1564 0.911323L32.4629 1.30637L32.7694 1.70141C32.9229 1.58228 33.1594 1.50983 33.5167 1.41592L33.3896 0.932343ZM32.4629 1.30637L32.1598 0.908672C30.8878 1.87801 29.9253 3.16081 29.0418 4.33598L29.4414 4.63644L29.8411 4.93691C30.7384 3.74327 31.622 2.57574 32.7659 1.70406L32.4629 1.30637ZM29.4414 4.63644L29.0424 4.33518C28.6306 4.88057 28.2167 5.43126 27.7788 5.95096L28.1611 6.27316L28.5435 6.59536C29.0021 6.05118 29.4328 5.47764 29.8405 4.9377L29.4414 4.63644ZM28.1611 6.27316L27.7796 5.95002C27.5676 6.20027 27.4399 6.42651 27.3165 6.64742L27.7529 6.89133L28.1894 7.13524C28.3105 6.91846 28.3985 6.76658 28.5427 6.59631L28.1611 6.27316ZM27.7529 6.89133L27.3159 6.64851C27.2539 6.76005 27.1892 6.87291 27.111 6.99925L27.5361 7.26242L27.9613 7.52559C28.0504 7.38165 28.1233 7.25429 28.19 7.13415L27.7529 6.89133ZM27.5361 7.26242L27.1039 7.01106C26.3975 8.22574 24.9176 10.8708 24.5468 11.5476L24.9854 11.7878L25.4239 12.028C25.7918 11.3564 27.2674 8.71913 27.9684 7.51378L27.5361 7.26242ZM24.9854 11.7878L24.526 11.5904C24.4356 11.8006 24.3006 12.0317 24.135 12.3143L24.5664 12.5671L24.9978 12.8199C25.154 12.5532 25.3248 12.2643 25.4447 11.9853L24.9854 11.7878ZM24.5664 12.5671L24.1364 12.312C23.9882 12.5618 23.8192 12.8494 23.6941 13.1282L24.1504 13.3327L24.6066 13.5373C24.7047 13.3186 24.8444 13.0785 24.9964 12.8222L24.5664 12.5671ZM24.1504 13.3327L23.695 13.1264C22.5184 15.7233 21.4058 18.3478 21.2161 20.9834L21.7148 21.0193L22.2136 21.0552C22.3886 18.6225 23.422 16.152 24.6058 13.5391L24.1504 13.3327ZM21.7148 21.0193L21.218 21.0756C21.3602 22.3279 22.1514 23.8546 23.7175 24.2701L23.8457 23.7868L23.9739 23.3036C22.9525 23.0325 22.3272 21.9807 22.2117 20.9629L21.7148 21.0193ZM23.8457 23.7868L23.8382 24.2868C24.3854 24.295 25.014 24.2069 25.6256 24.0186L25.4785 23.5407L25.3314 23.0629C24.8139 23.2222 24.2896 23.2934 23.8532 23.2869L23.8457 23.7868ZM25.4785 23.5407L25.7897 23.1494C23.9638 21.6975 23.1929 20.0332 23.4457 18.5775L22.9531 18.4919L22.4605 18.4063C22.1206 20.363 23.1875 22.3578 25.1673 23.9321L25.4785 23.5407ZM22.9531 18.4919L23.4457 18.5778C23.671 17.2859 24.7126 16.1883 26.4472 15.6374L26.2959 15.1609L26.1446 14.6843C24.1629 15.3136 22.7674 16.6468 22.4606 18.406L22.9531 18.4919ZM26.2959 15.1609L26.4747 15.6278C27.1587 15.3659 27.7423 15.2946 28.3322 15.3794L28.4033 14.8845L28.4745 14.3896C27.6911 14.277 26.9351 14.3807 26.1171 14.6939L26.2959 15.1609ZM28.4033 14.8845L28.4361 15.3834C29.4295 15.3181 30.477 15.6735 31.4658 16.4652L31.7783 16.0749L32.0908 15.6846C30.947 14.7688 29.66 14.3007 28.3705 14.3856L28.4033 14.8845ZM31.7783 16.0749L31.5626 16.526C31.8299 16.6538 32.1004 16.6664 32.3809 16.604L32.2725 16.1159L32.164 15.6278C32.0583 15.6513 32.0228 15.6376 31.994 15.6239L31.7783 16.0749ZM32.2725 16.1159V16.6159H32.2783V16.1159V15.6159H32.2725V16.1159ZM32.2783 16.1159L32.3813 16.6052C32.4217 16.5967 32.4474 16.5924 32.5053 16.5808L32.4072 16.0905L32.3092 15.6003C32.2812 15.6058 32.2165 15.618 32.1753 15.6267L32.2783 16.1159ZM32.4072 16.0905L32.5077 16.5803C32.5523 16.5712 32.5806 16.5655 32.6049 16.5617C32.6292 16.5579 32.6329 16.5588 32.6248 16.5586C32.6161 16.5585 32.5793 16.5568 32.5307 16.5362C32.4765 16.5132 32.4278 16.475 32.393 16.4276L32.7959 16.1316L33.1988 15.8355C33.0368 15.6149 32.8057 15.5622 32.6459 15.5589C32.5113 15.556 32.3725 15.5873 32.3068 15.6007L32.4072 16.0905ZM32.7959 16.1316L32.393 16.4277C32.359 16.3814 32.3392 16.3284 32.332 16.2776C32.3253 16.2303 32.3307 16.1939 32.335 16.1744C32.3416 16.144 32.3543 16.1241 32.3378 16.1555L32.7803 16.3884L33.2227 16.6213C33.2277 16.6119 33.2844 16.5128 33.3117 16.3889C33.3413 16.2541 33.3475 16.0378 33.1988 15.8354L32.7959 16.1316ZM32.7803 16.3884L32.3234 16.1853L32.3195 16.1941L32.7764 16.3972L33.2333 16.6003L33.2372 16.5915L32.7803 16.3884ZM32.7764 16.3972L32.3817 16.0902L32.3749 16.099L32.7695 16.406L33.1642 16.7129L33.171 16.7042L32.7764 16.3972ZM32.7695 16.406L32.377 16.0962C32.2241 16.29 32.0592 16.4876 31.8937 16.6495C31.7194 16.82 31.5863 16.9089 31.5028 16.9383L31.6689 17.4099L31.8351 17.8815C32.1292 17.7779 32.3897 17.5632 32.5931 17.3643C32.8051 17.1567 33.0017 16.9189 33.162 16.7157L32.7695 16.406ZM31.6689 17.4099L31.4786 16.9475L31.462 16.9544L31.6523 17.4167L31.8427 17.8791L31.8593 17.8722L31.6689 17.4099ZM31.6523 17.4167V16.9167H31.6348V17.4167V17.9167H31.6523V17.4167ZM31.6348 17.4167L31.6048 16.9176C31.6283 16.9162 31.6549 16.9182 31.6827 16.9253C31.7103 16.9323 31.7335 16.9429 31.7518 16.9538C31.7861 16.9745 31.7978 16.9934 31.7927 16.9864C31.788 16.9799 31.7774 16.9631 31.7617 16.9296C31.746 16.8961 31.7314 16.8599 31.7123 16.8121L31.248 16.9978L30.7838 17.1835C30.8149 17.2612 30.8797 17.4311 30.9839 17.5745C31.0961 17.7288 31.3181 17.9366 31.6647 17.9158L31.6348 17.4167ZM31.248 16.9978L31.7152 16.8196C31.6247 16.5823 31.4452 16.2907 31.3201 16.1215L30.918 16.4187L30.5159 16.7159C30.6095 16.8425 30.7339 17.0528 30.7809 17.176L31.248 16.9978ZM30.918 16.4187L31.3084 16.1063L31.2811 16.0721L30.8906 16.3845L30.5002 16.6968L30.5275 16.731L30.918 16.4187ZM30.8906 16.3845L31.2553 16.0424C31.0683 15.8431 30.6426 15.4697 30.2696 15.2653L30.0293 15.7038L29.789 16.1423C30.0426 16.2812 30.3868 16.5782 30.526 16.7266L30.8906 16.3845ZM30.0293 15.7038L30.2574 15.2589C29.9933 15.1235 29.6924 15.1115 29.5195 15.1004L29.4873 15.5993L29.4551 16.0983C29.6806 16.1128 29.7568 16.126 29.8012 16.1488L30.0293 15.7038ZM29.4873 15.5993L29.5185 15.1003C29.4115 15.0936 29.3288 15.088 29.2523 15.0756L29.1719 15.5691L29.0914 16.0625C29.225 16.0843 29.3573 16.0922 29.4561 16.0984L29.4873 15.5993ZM29.1719 15.5691V15.0691H29.1582V15.5691V16.0691H29.1719V15.5691ZM29.1582 15.5691L29.3953 15.1288L29.3826 15.122L29.1455 15.5622L28.9085 16.0025L28.9212 16.0093L29.1582 15.5691ZM29.1455 15.5622L29.3279 15.0967C28.19 14.6509 27.0317 15.0046 26.1124 15.2738L26.2529 15.7536L26.3934 16.2335C27.3793 15.9448 28.1958 15.7272 28.9631 16.0278L29.1455 15.5622ZM26.2529 15.7536L26.1113 15.2741C26.0341 15.2969 25.9185 15.3293 25.8299 15.3561L25.9746 15.8347L26.1193 16.3133C26.2148 16.2844 26.2835 16.266 26.3946 16.2331L26.2529 15.7536ZM25.9746 15.8347L25.7464 15.3898C24.7876 15.8816 23.9746 16.863 23.4703 18.0367L23.9297 18.2341L24.3891 18.4315C24.8289 17.408 25.5051 16.6374 26.2028 16.2796L25.9746 15.8347ZM23.9297 18.2341L23.4721 18.0326C23.1069 18.8622 23.0297 19.6723 23.2777 20.4829L23.7559 20.3366L24.234 20.1904C24.0658 19.6406 24.1045 19.0779 24.3873 18.4356L23.9297 18.2341ZM23.7559 20.3366L23.2777 20.4827C23.4785 21.1404 23.8761 21.7583 24.4807 22.4192L24.8496 22.0818L25.2186 21.7443C24.673 21.1479 24.3765 20.6572 24.2341 20.1906L23.7559 20.3366ZM24.8496 22.0818L24.5242 22.4614L24.531 22.4672L24.8564 22.0876L25.1818 21.708L25.175 21.7021L24.8496 22.0818ZM24.8564 22.0876L24.4642 22.3976C24.7436 22.7512 24.9856 23.0368 25.1979 23.2572C25.4057 23.4729 25.6072 23.65 25.8076 23.7627L26.0527 23.3269L26.2978 22.8911C26.2242 22.8496 26.1025 22.7549 25.9181 22.5635C25.7382 22.3767 25.5191 22.1197 25.2487 21.7776L24.8564 22.0876ZM26.0527 23.3269L26.2545 23.7843C26.8408 23.5257 27.4067 23.1533 27.8251 22.6398L27.4375 22.3239L27.0499 22.0081C26.7584 22.3658 26.3381 22.6545 25.8509 22.8694L26.0527 23.3269ZM27.4375 22.3239L27.8279 22.6363L27.8318 22.6314L27.4414 22.3191L27.051 22.0067L27.0471 22.0116L27.4375 22.3239ZM27.4414 22.3191L27.81 22.6569C27.8862 22.5738 27.9596 22.4897 28.0353 22.4007L27.6543 22.0769L27.2733 21.753C27.2031 21.8357 27.1382 21.9099 27.0728 21.9812L27.4414 22.3191ZM27.6543 22.0769L28.0319 22.4047C28.2059 22.2042 28.3586 22.03 28.5085 21.8964L28.1758 21.5232L27.843 21.15C27.6367 21.3339 27.4417 21.559 27.2767 21.7491L27.6543 22.0769ZM28.1758 21.5232L28.4239 21.9573L28.4307 21.9534L28.1826 21.5193L27.9345 21.0851L27.9277 21.089L28.1758 21.5232ZM28.1826 21.5193L28.4826 21.9192C28.496 21.9092 28.4767 21.9256 28.4446 21.9387C28.4095 21.953 28.3188 21.9801 28.2082 21.9415L28.373 21.4695L28.5379 20.9974C28.3417 20.9289 28.1687 20.9712 28.0662 21.013C27.9669 21.0537 27.8951 21.1099 27.8826 21.1193L28.1826 21.5193ZM28.373 21.4695L28.2022 21.9393C28.1539 21.9218 28.1048 21.8912 28.0634 21.8457C28.0217 21.7999 27.9954 21.7472 27.9827 21.6962L28.4678 21.5749L28.9528 21.4537C28.8989 21.2377 28.7441 21.0724 28.5439 20.9996L28.373 21.4695ZM28.4678 21.5749L27.9775 21.673L27.9814 21.6925L28.4717 21.5945L28.962 21.4964L28.9581 21.4769L28.4678 21.5749ZM28.4717 21.5945H27.9717V21.6159H28.4717H28.9717V21.5945H28.4717ZM28.4717 21.6159L27.9733 21.5758C27.9737 21.571 27.9737 21.5906 27.9386 21.644C27.9023 21.6992 27.8488 21.7607 27.771 21.8432L28.1348 22.1862L28.4985 22.5293C28.6382 22.3812 28.9365 22.073 28.9701 21.6561L28.4717 21.6159ZM28.1348 22.1862L27.7223 21.9036C27.6248 22.0459 27.5035 22.1885 27.363 22.3381L27.7275 22.6804L28.092 23.0226C28.2503 22.8541 28.4095 22.6699 28.5472 22.4689L28.1348 22.1862ZM27.7275 22.6804L27.3245 22.3845C27.2597 22.4727 27.2093 22.5383 27.1586 22.5912L27.5195 22.9372L27.8804 23.2833C27.9812 23.1782 28.0657 23.0647 28.1306 22.9763L27.7275 22.6804ZM27.5195 22.9372L27.166 22.5837L27.1572 22.5925L27.5107 22.946L27.8643 23.2996L27.8731 23.2908L27.5195 22.9372ZM27.5107 22.946L27.1833 22.5681C27.141 22.6048 27.0903 22.6435 27.0262 22.6901L27.3203 23.0945L27.6144 23.4988C27.685 23.4475 27.7631 23.3889 27.8382 23.3239L27.5107 22.946ZM27.3203 23.0945L26.9673 22.7404C26.9067 22.8008 26.8389 22.8677 26.7735 22.9352L27.1328 23.2829L27.4921 23.6306C27.5493 23.5715 27.6073 23.5144 27.6734 23.4485L27.3203 23.0945ZM27.1328 23.2829L26.7681 22.9409C26.7408 22.9701 26.7087 23.0029 26.6767 23.0348L27.0303 23.3884L27.3838 23.742C27.4205 23.7053 27.4605 23.6644 27.4976 23.6249L27.1328 23.2829ZM27.0303 23.3884L26.6767 23.0348C26.6018 23.1098 26.4959 23.216 26.421 23.3336C26.3353 23.4682 26.2521 23.6777 26.3246 23.9267L26.8047 23.7868L27.2847 23.647C27.2917 23.671 27.2963 23.6977 27.2971 23.7262C27.2979 23.7545 27.2949 23.7804 27.29 23.8028C27.2804 23.8461 27.265 23.87 27.2646 23.8706C27.2644 23.8709 27.2712 23.8605 27.2936 23.8356C27.3155 23.8111 27.3441 23.7817 27.3838 23.7419L27.0303 23.3884ZM26.8047 23.7868L26.4885 24.1742C26.5396 24.2159 26.5909 24.2583 26.6437 24.302C26.6961 24.3453 26.7499 24.3898 26.8039 24.4339L27.1201 24.0466L27.4363 23.6593C27.3852 23.6176 27.3339 23.5751 27.2811 23.5314C27.2287 23.4881 27.1749 23.4436 27.1209 23.3995L26.8047 23.7868ZM27.1201 24.0466L26.802 24.4323C28.1225 25.5216 29.4299 26.6003 30.3986 27.8856L30.7979 27.5847L31.1971 27.2838C30.1446 25.8872 28.7397 24.7344 27.4383 23.6609L27.1201 24.0466ZM30.7979 27.5847L30.3984 27.8854C31.4959 29.3434 31.9063 30.7749 31.7074 32.283L32.2031 32.3484L32.6988 32.4137C32.9375 30.6047 32.4256 28.9157 31.1973 27.284L30.7979 27.5847ZM32.2031 32.3484L31.7074 32.283C31.4849 33.9712 30.8666 35.3871 29.8832 36.5125L30.2598 36.8415L30.6363 37.1705C31.7639 35.88 32.4536 34.2742 32.6988 32.4137L32.2031 32.3484ZM30.2598 36.8415L29.8837 36.512C28.9907 37.5311 27.822 38.2891 26.3994 38.7572L26.5557 39.2321L26.7119 39.7071C28.2891 39.1882 29.6148 38.3363 30.6358 37.171L30.2598 36.8415ZM26.5557 39.2321L26.3996 38.7571C25.4026 39.0847 24.3073 39.2517 23.1865 39.2517V39.7517V40.2517C24.4045 40.2517 25.606 40.0705 26.7117 39.7072L26.5557 39.2321ZM23.1865 39.7517H23.6865V39.7448H23.1865H22.6865V39.7517H23.1865ZM23.1865 39.7448L23.1865 39.2448C22.3728 39.2448 21.5488 39.1569 20.7418 38.9783L20.6338 39.4665L20.5257 39.9547C21.4048 40.1493 22.3014 40.2448 23.1865 40.2448L23.1865 39.7448ZM20.6338 39.4665L20.7414 38.9782C18.8076 38.5519 17.1088 37.641 15.947 36.4351L15.5869 36.782L15.2268 37.1289C16.5455 38.4977 18.4304 39.4928 20.5261 39.9548L20.6338 39.4665ZM15.5869 36.782L15.9472 36.4352C15.0735 35.5275 14.5162 34.4827 14.2788 33.3296L13.7891 33.4304L13.2993 33.5312C13.577 34.8797 14.2294 36.0925 15.2267 37.1287L15.5869 36.782ZM13.7891 33.4304L14.2788 33.3297C14.0198 32.07 14.1511 30.6915 14.6972 29.2207L14.2285 29.0466L13.7598 28.8725C13.1602 30.4871 12.9962 32.0573 13.2993 33.5311L13.7891 33.4304ZM14.2285 29.0466L14.7175 29.1512C14.9039 28.2795 15.5084 27.6733 16.3795 26.9211L16.0527 26.5427L15.7259 26.1643C14.8676 26.9055 14.0038 27.7066 13.7396 28.942L14.2285 29.0466ZM16.0527 26.5427L16.4008 26.9017C17.1983 26.1286 18.3305 25.7194 19.7174 25.7612L19.7324 25.2614L19.7475 24.7617C18.1431 24.7133 16.7311 25.1887 15.7047 26.1837L16.0527 26.5427ZM19.7324 25.2614L19.7176 25.7612C20.8647 25.7953 22.1626 26.14 23.3598 26.7406L23.584 26.2937L23.8082 25.8468C22.4992 25.19 21.0592 24.8006 19.7473 24.7617L19.7324 25.2614ZM23.584 26.2937L23.4351 26.771C23.7817 26.8791 24.0401 26.7003 24.1334 26.6209L23.8096 26.24L23.4857 25.859C23.4932 25.8526 23.5174 25.833 23.5594 25.8188C23.6085 25.8022 23.6716 25.7972 23.7329 25.8164L23.584 26.2937ZM23.8096 26.24L24.2008 26.5513C24.5992 26.0507 25.0322 25.6142 25.5155 25.1289L25.1611 24.7761L24.8068 24.4233C24.3288 24.9035 23.8567 25.3778 23.4184 25.9286L23.8096 26.24ZM25.1611 24.7761L25.5167 25.1277C25.705 24.9372 25.9071 24.735 26.1081 24.5254L25.7471 24.1794L25.3861 23.8335C25.1923 24.0357 24.9991 24.2289 24.8056 24.4245L25.1611 24.7761ZM25.7471 24.1794L26.1103 24.5231C26.215 24.4124 26.3816 24.1959 26.3542 23.9076L25.8564 23.9548L25.3587 24.002C25.3508 23.9193 25.374 23.8618 25.3842 23.8411C25.3941 23.8208 25.3992 23.8196 25.3839 23.8358L25.7471 24.1794ZM25.8564 23.9548L26.355 23.9174C26.3437 23.7663 26.2808 23.6506 26.2397 23.5852L25.8164 23.8513L25.3931 24.1173C25.3931 24.1173 25.3916 24.115 25.3893 24.1106C25.387 24.1063 25.3835 24.0991 25.3795 24.0892C25.3718 24.0697 25.3612 24.0364 25.3578 23.9922L25.8564 23.9548ZM25.8164 23.8513L25.6423 23.3826C24.9839 23.6272 24.3425 23.786 23.9886 23.8297L24.0498 24.3259L24.111 24.8221C24.5652 24.7661 25.2849 24.5821 25.9905 24.32L25.8164 23.8513ZM24.0498 24.3259V23.8259H24.041V24.3259V24.8259H24.0498V24.3259ZM24.041 24.3259L23.9326 24.814L23.9413 24.8159L24.0498 24.3279L24.1583 23.8398L24.1495 23.8378L24.041 24.3259ZM24.0498 24.3279V23.8279H24.041V24.3279V24.8279H24.0498V24.3279ZM24.041 24.3279L24.05 23.8279C23.395 23.8161 22.8201 23.504 22.3746 22.8621L21.9639 23.1472L21.5531 23.4323C22.159 24.3053 23.0177 24.8095 24.032 24.8278L24.041 24.3279ZM21.9639 23.1472L22.3748 22.8624C22.0006 22.3224 21.7447 21.5706 21.6942 20.8057L21.1953 20.8386L20.6964 20.8715C20.7575 21.7972 21.0647 22.7275 21.5529 23.432L21.9639 23.1472ZM21.1953 20.8386H21.6953V20.8327H21.1953H20.6953V20.8386H21.1953ZM21.1953 20.8327L21.6952 20.8238C21.6526 18.4418 22.4913 15.5365 24.2488 12.1737L23.8057 11.9421L23.3625 11.7105C21.5653 15.1493 20.6486 18.2263 20.6954 20.8417L21.1953 20.8327ZM23.8057 11.9421L23.6655 11.4621C23.0034 11.6554 22.0163 11.9127 21.0997 12.1472L21.2236 12.6316L21.3475 13.116C22.2622 12.882 23.2651 12.6208 23.9458 12.4221L23.8057 11.9421ZM21.2236 12.6316L21.0994 12.1473C20.2225 12.3722 19.3421 12.5972 19.0518 12.6986L19.2168 13.1706L19.3818 13.6426C19.6194 13.5596 20.4352 13.3501 21.3479 13.1159L21.2236 12.6316ZM19.2168 13.1706L18.925 12.7646C18.7723 12.8743 18.6956 13.0208 18.6549 13.119C18.6148 13.2157 18.5887 13.3197 18.5729 13.3801L19.0566 13.5066L19.5404 13.6331C19.5499 13.5965 19.5569 13.57 19.564 13.5458C19.571 13.5221 19.5758 13.509 19.5786 13.5022C19.5814 13.4953 19.5794 13.502 19.5701 13.5154C19.5602 13.5297 19.5407 13.5536 19.5086 13.5767L19.2168 13.1706ZM19.0566 13.5066L18.5716 13.3853C18.5567 13.4446 18.5429 13.4913 18.5278 13.5303L18.9941 13.7107L19.4605 13.8911C19.4968 13.7971 19.5223 13.7057 19.5417 13.6278L19.0566 13.5066ZM18.9941 13.7107L18.5469 13.4871L18.5381 13.5046L18.9854 13.7282L19.4326 13.9518L19.4414 13.9343L18.9941 13.7107ZM18.9854 13.7282L18.5516 13.4795C17.2892 15.6811 15.5962 18.63 13.472 20.8844L13.8359 21.2273L14.1998 21.5702C16.4184 19.2156 18.1667 16.1611 19.4191 13.977L18.9854 13.7282ZM13.8359 21.2273L13.4724 20.884C12.3417 22.0815 11.1923 22.9663 10.0599 23.5284L10.2822 23.9763L10.5045 24.4241C11.7667 23.7976 13.0085 22.832 14.1995 21.5705L13.8359 21.2273ZM10.2822 23.9763L10.0603 23.5282C8.98582 24.0604 7.88316 24.3239 6.76953 24.3239V24.8239V25.3239C8.04613 25.3239 9.29997 25.0207 10.5041 24.4243L10.2822 23.9763ZM6.76953 24.8239L7.26147 24.7345L7.25951 24.7238L6.76758 24.8132L6.27564 24.9026L6.2776 24.9134L6.76953 24.8239ZM6.76758 24.8132L6.76758 24.3132C6.52025 24.3132 6.27365 24.3009 6.02814 24.275L5.97559 24.7722L5.92303 25.2694C6.20534 25.2993 6.48709 25.3132 6.76758 25.3132L6.76758 24.8132ZM5.97559 24.7722V24.2722H5.96973V24.7722V25.2722H5.97559V24.7722ZM5.96973 24.7722L6.04567 24.278C3.46204 23.881 1.6218 21.804 1.09481 18.3683L0.600586 18.4441L0.106366 18.5199C0.677985 22.2466 2.75259 24.7837 5.89378 25.2664L5.96973 24.7722ZM0.600586 18.4441L1.09475 18.3679C0.765508 16.2323 1.30409 13.8856 2.58939 11.935L2.17188 11.6599L1.75436 11.3848C0.342834 13.527 -0.26334 16.1218 0.106424 18.5202L0.600586 18.4441ZM2.17188 11.6599L2.63472 11.849C2.88306 11.2413 3.68694 10.4875 4.83601 9.94963L4.62402 9.4968L4.41204 9.04396C3.16115 9.62953 2.09437 10.5278 1.70903 11.4707L2.17188 11.6599ZM4.62402 9.4968L4.83559 9.94983C6.08745 9.36523 7.38564 9.21676 8.39157 9.49179L8.52344 9.00949L8.6553 8.52719C7.36958 8.17567 5.82561 8.38384 4.41246 9.04376L4.62402 9.4968ZM8.52344 9.00949L8.39892 9.49374L8.4331 9.50253L8.55762 9.01828L8.68214 8.53403L8.64796 8.52524L8.52344 9.00949ZM8.55762 9.01828L8.17242 9.33706L8.19586 9.36538L8.58105 9.0466L8.96625 8.72782L8.94281 8.6995L8.55762 9.01828ZM8.58105 9.0466L8.20911 9.38075C8.19711 9.36739 8.19322 9.36065 8.19657 9.36571C8.19881 9.3691 8.20332 9.37635 8.20908 9.38712C8.22116 9.40966 8.2323 9.43543 8.23934 9.45774C8.24745 9.48345 8.24366 9.48384 8.24412 9.46269C8.24459 9.44122 8.25154 9.35436 8.32882 9.27012L8.69727 9.60812L9.06571 9.94613C9.20703 9.79208 9.24113 9.61087 9.24388 9.48446C9.24663 9.35837 9.22026 9.24322 9.19297 9.15675C9.14197 8.99519 9.05079 8.8213 8.953 8.71245L8.58105 9.0466ZM8.69727 9.60812L8.3265 9.27267C8.36153 9.23395 8.43617 9.17265 8.5499 9.16269C8.66349 9.15273 8.71972 9.20246 8.70059 9.1878L8.39648 9.58469L8.09238 9.98157C8.23847 10.0935 8.42471 10.1775 8.63719 10.1589C8.84981 10.1402 8.99223 10.0274 9.06803 9.94358L8.69727 9.60812ZM8.39648 9.58469L8.7131 9.19771L8.70236 9.18892L8.38574 9.5759L8.06912 9.96288L8.07987 9.97166L8.39648 9.58469ZM8.38574 9.5759L8.77272 9.25928L8.76393 9.24854L8.37695 9.56516L7.98997 9.88177L7.99876 9.89252L8.38574 9.5759ZM8.37695 9.56516L8.75392 9.23668C8.418 8.85117 7.9308 8.71175 7.4699 8.68367C7.00381 8.65526 6.49133 8.73471 6.0028 8.86261C5.03016 9.11725 4.02999 9.59731 3.47176 10.0111L3.76953 10.4128L4.0673 10.8145C4.50738 10.4882 5.38668 10.0576 6.25606 9.83001C6.68854 9.71679 7.08771 9.66223 7.40907 9.68181C7.73562 9.70171 7.91168 9.79229 7.99999 9.89363L8.37695 9.56516ZM3.76953 10.4128L3.36953 10.7128L3.37246 10.7167L3.77246 10.4167L4.17246 10.1167L4.16953 10.1128L3.76953 10.4128ZM3.77246 10.4167L3.44121 10.0422C1.8229 11.4735 0.880468 13.5913 0.749772 15.9773L1.24902 16.0046L1.74827 16.032C1.86652 13.8733 2.71373 12.0206 4.10371 10.7912L3.77246 10.4167ZM1.24902 16.0046L0.749739 15.9779C0.675437 17.3648 0.877676 18.806 1.33293 20.1539L1.80664 19.9939L2.28035 19.8339C1.86444 18.6025 1.68099 17.2879 1.74831 16.0314L1.24902 16.0046ZM1.80664 19.9939L1.33317 20.1546C1.79301 21.5093 2.50416 22.7461 3.39732 23.7303L3.76758 23.3943L4.13784 23.0582C3.34483 22.1844 2.69992 21.07 2.28011 19.8332L1.80664 19.9939ZM3.76758 23.3943L3.44859 23.7793C4.17609 24.382 5.04731 24.7788 5.91482 24.8746L5.96973 24.3777L6.02463 23.8807C5.37725 23.8092 4.68514 23.5051 4.08657 23.0092L3.76758 23.3943ZM5.96973 24.3777L5.92997 24.8761C8.92264 25.1148 11.2604 23.7615 13.1487 21.8391C15.0246 19.9293 16.5035 17.4105 17.7874 15.2279L17.3564 14.9743L16.9255 14.7208C15.6282 16.9261 14.2095 19.3321 12.4352 21.1384C10.6733 22.9322 8.6084 24.0866 6.00949 23.8792L5.96973 24.3777ZM17.3564 14.9743L17.7866 15.2291C17.9497 14.9539 18.1163 14.6708 18.2721 14.4078L17.8418 14.153L17.4115 13.8983C17.2498 14.1716 17.0936 14.437 16.9262 14.7195L17.3564 14.9743ZM17.8418 14.153L18.2807 14.3925C18.3392 14.2854 18.395 14.1666 18.4431 14.0684L17.9941 13.8484L17.5452 13.6283C17.486 13.7489 17.4474 13.832 17.4028 13.9136L17.8418 14.153ZM17.9941 13.8484L18.4443 14.0659C18.5395 13.8689 18.6206 13.7026 18.7101 13.5638L18.29 13.2927L17.8699 13.0216C17.7408 13.2217 17.6332 13.4461 17.5439 13.6308L17.9941 13.8484ZM18.29 13.2927L18.7297 13.5308C18.7031 13.5799 18.6678 13.6033 18.6652 13.6051L18.3936 13.1853L18.1219 12.7655C18.0463 12.8144 17.9328 12.9025 17.8504 13.0546L18.29 13.2927ZM18.3936 13.1853L18.8479 13.394L18.8645 13.3579L18.4102 13.1491L17.9558 12.9404L17.9392 12.9765L18.3936 13.1853ZM18.4102 13.1491L18.8641 13.3587C18.8681 13.35 18.8819 13.3231 18.9048 13.283L18.4707 13.0349L18.0366 12.7868C18.0081 12.8367 17.9779 12.8925 17.9562 12.9396L18.4102 13.1491ZM18.4707 13.0349L18.9132 13.2678C18.9321 13.2317 18.9699 13.1611 19.0023 13.0956C19.0186 13.0628 19.0368 13.0244 19.0526 12.9871C19.0611 12.9667 19.0942 12.8904 19.1059 12.804L18.6104 12.737L18.1149 12.6701C18.1179 12.6472 18.1221 12.63 18.1244 12.6211C18.127 12.6113 18.1292 12.6045 18.1303 12.6012C18.1324 12.5951 18.1331 12.5938 18.1309 12.599C18.1265 12.6094 18.1183 12.6272 18.1059 12.6524C18.0808 12.7031 18.0522 12.7566 18.0283 12.802L18.4707 13.0349ZM18.6104 12.737L19.1067 12.7972L19.1106 12.765L18.6143 12.7048L18.1179 12.6446L18.114 12.6769L18.6104 12.737ZM18.6143 12.7048L19.1015 12.5924C19.1248 12.6936 19.0974 12.7741 19.0797 12.8112C19.0642 12.8434 19.0449 12.8646 19.0586 12.8479L18.6719 12.531L18.2851 12.2141C18.2793 12.2212 18.2215 12.2876 18.1774 12.38C18.131 12.4772 18.0845 12.6327 18.1271 12.8172L18.6143 12.7048ZM18.6719 12.531L19.0254 12.8845L19.0303 12.8796L18.6768 12.5261L18.3232 12.1725L18.3183 12.1774L18.6719 12.531ZM18.6768 12.5261L19.038 12.8717C19.235 12.6659 19.4573 12.2933 19.5909 12.0495L19.1523 11.8093L18.7138 11.5691C18.5772 11.8185 18.4103 12.0814 18.3155 12.1804L18.6768 12.5261ZM19.1523 11.8093L19.5908 12.0497C20.6284 10.1569 21.8402 8.3249 23.0246 6.53218L22.6074 6.25656L22.1902 5.98095C21.0101 7.76722 19.7748 9.6338 18.7139 11.5689L19.1523 11.8093ZM22.6074 6.25656L23.0247 6.53209L23.0588 6.48033L22.6416 6.2048L22.2244 5.92927L22.1902 5.98103L22.6074 6.25656ZM22.6416 6.2048L23.0433 6.5025C23.2257 6.25635 23.316 6.00919 23.3873 5.81828L22.9189 5.64328L22.4506 5.46828C22.3761 5.66767 22.3277 5.78867 22.2399 5.90711L22.6416 6.2048ZM22.9189 5.64328L23.3871 5.81884C23.466 5.60838 23.5233 5.46216 23.6334 5.31824L23.2363 5.01437L22.8393 4.7105C22.6276 4.98714 22.5263 5.26621 22.4508 5.46772L22.9189 5.64328ZM23.2363 5.01437L23.5899 5.36793L23.6006 5.35718L23.2471 5.00363L22.8935 4.65008L22.8828 4.66082L23.2363 5.01437ZM23.2471 5.00363L23.6046 5.35318C24.5194 4.41749 25.6788 3.46428 26.9555 2.60264L26.6758 2.1882L26.3961 1.77376C25.0721 2.66733 23.8587 3.66291 22.8896 4.65408L23.2471 5.00363ZM26.6758 2.1882L26.8789 2.64511L26.8876 2.6412L26.6846 2.1843L26.4815 1.72739L26.4727 1.7313L26.6758 2.1882ZM26.6846 2.1843L26.9311 2.61931C26.9395 2.61451 26.9441 2.61197 26.9484 2.60963C26.9503 2.60859 26.9518 2.60784 26.9528 2.60732C26.9533 2.60706 26.9537 2.60687 26.954 2.60674C26.9541 2.60667 26.9542 2.60662 26.9543 2.60659C26.9544 2.60656 26.9544 2.60654 26.9544 2.60654C26.9544 2.60655 26.9544 2.60656 26.9543 2.6066C26.9542 2.60663 26.9541 2.60668 26.9539 2.60674C26.9537 2.60687 26.9532 2.60707 26.9526 2.60733C26.9513 2.60784 26.9493 2.60864 26.9465 2.60963C26.9413 2.6115 26.9313 2.61471 26.9173 2.61757C26.8913 2.62288 26.834 2.63044 26.7615 2.6105C26.681 2.58836 26.6148 2.54128 26.5712 2.48625L26.9629 2.17551L27.3546 1.86476C27.16 1.61945 26.887 1.60312 26.7172 1.6378C26.5762 1.6666 26.4603 1.7367 26.4381 1.74928L26.6846 2.1843ZM26.9629 2.17551L26.5686 2.48302C26.522 2.42328 26.4923 2.34303 26.4924 2.25754C26.4924 2.18266 26.5151 2.13228 26.5234 2.11576C26.532 2.09865 26.5374 2.09386 26.5292 2.10401C26.5212 2.11388 26.5112 2.12501 26.4906 2.14731L26.8584 2.48605L27.2262 2.8248C27.2523 2.79637 27.3523 2.69338 27.4169 2.56499C27.4932 2.41319 27.5618 2.13041 27.3571 1.86799L26.9629 2.17551ZM26.8584 2.48605L26.4977 2.13983C25.058 3.63983 23.381 5.48952 21.98 7.71798L22.4033 7.9841L22.8266 8.25022C24.1722 6.10996 25.7921 4.31914 27.2191 2.83228L26.8584 2.48605ZM22.4033 7.9841L21.9852 7.70989L21.8866 7.86028L22.3047 8.13449L22.7228 8.4087L22.8214 8.25831L22.4033 7.9841ZM22.3047 8.13449L21.887 7.85972C21.362 8.65783 20.8013 9.50831 20.3485 10.3609L20.79 10.5954L21.2316 10.83C21.6584 10.0263 22.1918 9.21593 22.7224 8.40926L22.3047 8.13449ZM20.79 10.5954L20.3428 10.3718C20.2823 10.4929 20.183 10.6906 20.1146 10.9007C20.052 11.0928 19.9787 11.3987 20.0803 11.6977L20.5537 11.5368L21.0271 11.376C21.0333 11.3942 21.0276 11.3923 21.0311 11.3568C21.0345 11.3223 21.0448 11.2737 21.0654 11.2106C21.1075 11.0813 21.1734 10.9467 21.2373 10.819L20.79 10.5954ZM20.5537 11.5368H20.0537V11.5417H20.5537H21.0537V11.5368H20.5537ZM20.5537 11.5417C20.1368 11.8177 20.1375 11.8188 20.1382 11.8199C20.1385 11.8202 20.1392 11.8213 20.1397 11.822C20.1406 11.8234 20.1416 11.8249 20.1426 11.8263C20.1445 11.8291 20.1465 11.8319 20.1485 11.8347C20.1525 11.8402 20.1566 11.8457 20.1609 11.851C20.1693 11.8618 20.178 11.872 20.1871 11.8819C20.2052 11.9017 20.2244 11.9196 20.2443 11.9358C20.2837 11.968 20.3261 11.9941 20.3693 12.0154C20.4538 12.0571 20.5547 12.0874 20.6755 12.1094C20.9151 12.1529 21.2984 12.175 21.9356 12.1375L21.9062 11.6384L21.8769 11.1393C21.2739 11.1747 20.9809 11.1485 20.8543 11.1255C20.792 11.1141 20.7873 11.1066 20.812 11.1187C20.8253 11.1253 20.8492 11.1387 20.8776 11.1619C20.892 11.1737 20.9076 11.188 20.9234 11.2053C20.9314 11.2139 20.9394 11.2233 20.9473 11.2334C20.9512 11.2384 20.9552 11.2436 20.9591 11.249C20.961 11.2517 20.963 11.2545 20.9649 11.2572C20.9659 11.2586 20.9668 11.26 20.9678 11.2614C20.9682 11.2621 20.969 11.2632 20.9692 11.2636C20.9699 11.2646 20.9706 11.2657 20.5537 11.5417ZM21.9062 11.6384L21.9357 12.1375C22.6822 12.0935 23.543 11.9857 24.0457 11.9215L23.9824 11.4255L23.9191 10.9295C23.4134 10.9941 22.5846 11.0975 21.8768 11.1393L21.9062 11.6384ZM23.9824 11.4255L24.0463 11.9214C24.084 11.9166 24.1189 11.912 24.1518 11.9079L24.0889 11.4118L24.0259 10.9158C23.9918 10.9201 23.9551 10.9249 23.9186 10.9296L23.9824 11.4255ZM24.0889 11.4118L24.5282 11.6506C26.1251 8.71224 28.1003 6.00979 29.51 4.22026L29.1172 3.91086L28.7244 3.60146C27.2974 5.41298 25.2843 8.16513 23.6496 11.1731L24.0889 11.4118ZM29.1172 3.91086L29.5 4.23245L29.5411 4.18363L29.1582 3.86203L28.7754 3.54043L28.7343 3.58926L29.1172 3.91086ZM29.1582 3.86203L29.5233 4.20361C29.6521 4.066 29.8031 3.89847 29.9587 3.72351L29.585 3.39133L29.2113 3.05914C29.0578 3.23179 28.9132 3.392 28.7931 3.52045L29.1582 3.86203ZM26.2471 24.2116L26.181 23.716C26.1258 23.7234 26.0462 23.7406 25.9623 23.7874C25.8736 23.8369 25.8072 23.9041 25.7598 23.9753L26.1758 24.2527L26.5918 24.53C26.5615 24.5755 26.5147 24.6243 26.4493 24.6608C26.3887 24.6946 26.3361 24.7042 26.3132 24.7073L26.2471 24.2116ZM26.1758 24.2527L25.7391 24.0091C25.5478 24.352 25.2493 24.6724 24.9063 25.033L25.2686 25.3777L25.6308 25.7223C25.9573 25.3791 26.3489 24.9687 26.6124 24.4963L26.1758 24.2527ZM25.2686 25.3777L24.906 25.0334C24.5222 25.4376 24.0226 25.9509 23.7933 26.5651L24.2617 26.74L24.7301 26.9149C24.8741 26.5293 25.2082 26.1674 25.6311 25.7219L25.2686 25.3777ZM24.2617 26.74L23.7902 26.9062C23.8513 27.0795 23.9621 27.2144 24.0463 27.3043C24.134 27.3978 24.2332 27.4837 24.3043 27.5456L24.6328 27.1687L24.9613 26.7917C24.8823 26.7229 24.8228 26.6705 24.7759 26.6204C24.7255 26.5666 24.7258 26.5526 24.7333 26.5737L24.2617 26.74ZM24.6328 27.1687L24.3053 27.5465C24.3403 27.5768 24.3631 27.5964 24.3854 27.6171L24.7256 27.2507L25.0658 26.8843C25.028 26.8492 24.9897 26.8163 24.9603 26.7908L24.6328 27.1687ZM24.7256 27.2507L24.4203 27.6467C25.2081 28.2541 25.6111 29.3387 25.4087 30.5103L25.9014 30.5954L26.3941 30.6806C26.6506 29.1961 26.1524 27.7193 25.0309 26.8547L24.7256 27.2507ZM25.9014 30.5954L25.4058 30.5293C25.2916 31.3842 25.0318 32.2481 24.6231 32.8947C24.218 33.5357 23.7032 33.9143 23.0651 33.9497L23.0928 34.4489L23.1205 34.9482C24.1859 34.889 24.9552 34.241 25.4685 33.4289C25.9782 32.6224 26.2708 31.6069 26.397 30.6616L25.9014 30.5954ZM23.0928 34.4489V33.9489H23.0625V34.4489V34.9489H23.0928V34.4489ZM23.0625 34.4489L23.2398 33.9814L23.2115 33.9707L23.0342 34.4382L22.8569 34.9057L22.8852 34.9164L23.0625 34.4489ZM23.0342 34.4382L23.231 33.9786C23.129 33.9349 23.0256 33.8963 22.9326 33.8611L22.7559 34.3288L22.5792 34.7966C22.6788 34.8342 22.7595 34.8645 22.8373 34.8978L23.0342 34.4382ZM22.7559 34.3288L22.9326 33.8611C22.5147 33.7032 22.2476 33.5861 22.1029 33.3579L21.6807 33.6257L21.2584 33.8935C21.6116 34.4503 22.2247 34.6627 22.5792 34.7966L22.7559 34.3288ZM21.6807 33.6257L22.0884 33.3363C21.5572 32.5879 21.3893 31.7473 21.5949 30.7836C21.8046 29.8003 22.4083 28.673 23.4598 27.4071L23.0752 27.0876L22.6906 26.7681C21.5837 28.1006 20.8732 29.3734 20.6169 30.575C20.3564 31.7962 20.5704 32.9255 21.2729 33.9151L21.6807 33.6257ZM23.0752 27.0876L23.4959 27.3578C23.6103 27.1797 23.6867 26.9464 23.6061 26.6984C23.5333 26.4743 23.3666 26.3559 23.2959 26.31L23.0234 26.7292L22.7509 27.1484C22.7661 27.1583 22.6908 27.1172 22.6551 27.0074C22.6116 26.8737 22.671 26.7917 22.6545 26.8175L23.0752 27.0876ZM23.0234 26.7292L23.2911 26.3069C21.7023 25.3002 19.6604 25.0182 18.0663 25.648L18.25 26.113L18.4337 26.578C19.6846 26.0839 21.3923 26.2876 22.7558 27.1516L23.0234 26.7292ZM18.25 26.113L17.8213 25.8558L17.8183 25.8606L18.2471 26.1179L18.6758 26.3751L18.6787 26.3703L18.25 26.113ZM18.2471 26.1179L18.047 25.6597C16.7982 26.205 15.8635 27.2567 15.2389 28.443C14.6138 29.6305 14.2784 30.9907 14.2521 32.2175L14.752 32.2282L15.2518 32.239C15.2749 31.1658 15.5715 29.958 16.1238 28.9089C16.6767 27.8586 17.4648 27.0051 18.4472 26.5761L18.2471 26.1179ZM14.752 32.2282L14.2521 32.2158C14.2079 33.9891 14.8604 35.6317 16.1175 36.9511L16.4795 36.6062L16.8415 36.2613C15.7597 35.1259 15.2145 33.7375 15.2518 32.2407L14.752 32.2282ZM16.4795 36.6062L16.1174 36.9509C17.2531 38.1439 18.8599 39.0367 20.6316 39.4836L20.7539 38.9987L20.8762 38.5139C19.2622 38.1069 17.8302 37.2998 16.8416 36.2614L16.4795 36.6062ZM20.7539 38.9987L20.6313 39.4835C22.5217 39.9617 24.5053 39.9173 26.2236 39.3484L26.0664 38.8737L25.9092 38.3991C24.3877 38.9029 22.5992 38.9498 20.8765 38.514L20.7539 38.9987ZM26.0664 38.8737L26.224 39.3483C28.1309 38.7149 29.6142 37.4736 30.4906 35.7509L30.0449 35.5241L29.5993 35.2974C28.8492 36.7719 27.581 37.8439 25.9088 38.3992L26.0664 38.8737ZM30.0449 35.5241L30.4839 35.7636L30.4897 35.7528L30.0508 35.5134L29.6118 35.274L29.606 35.2847L30.0449 35.5241ZM30.0508 35.5134L30.4733 35.7807C31.5464 34.0843 31.9555 32.0796 31.6206 30.1393L31.1279 30.2243L30.6352 30.3094C30.9269 31.9996 30.5721 33.7539 29.6282 35.2461L30.0508 35.5134ZM31.1279 30.2243L31.6207 30.1396C31.2781 28.1463 30.1686 26.4136 28.5034 25.2605L28.2188 25.6716L27.9341 26.0827C29.3799 27.0838 30.3383 28.5819 30.6352 30.309L31.1279 30.2243ZM28.2188 25.6716V25.1716H28.2148V25.6716V26.1716H28.2188V25.6716ZM28.2148 25.6716L28.5402 25.292L28.4992 25.2568L28.1738 25.6364L27.8484 26.0161L27.8894 26.0512L28.2148 25.6716ZM28.1738 25.6364L28.4159 25.199C28.4187 25.2005 28.4106 25.1961 28.3878 25.179C28.3661 25.1626 28.3374 25.1394 28.2995 25.107C28.2227 25.0413 28.1245 24.9519 27.9924 24.8306L27.6543 25.1989L27.3162 25.5673C27.4458 25.6863 27.557 25.7877 27.6493 25.8668C27.7357 25.9407 27.8332 26.0194 27.9317 26.0739L28.1738 25.6364ZM27.6543 25.1989L27.9923 24.8305C27.7877 24.6427 27.4941 24.3725 27.2117 24.154C27.0711 24.0452 26.9188 23.9378 26.7709 23.8579C26.6479 23.7915 26.4293 23.6875 26.1903 23.7149L26.2471 24.2116L26.3039 24.7084C26.213 24.7188 26.1923 24.682 26.296 24.7379C26.3746 24.7804 26.4776 24.8503 26.5997 24.9448C26.8428 25.133 27.1048 25.3733 27.3163 25.5674L27.6543 25.1989ZM23.8369 27.448L23.7693 26.9526C23.3651 27.0077 23.0143 27.2425 22.7294 27.545C22.4416 27.8507 22.1899 28.2573 21.981 28.7305L22.4385 28.9323L22.8959 29.1342C23.0732 28.7323 23.2686 28.4311 23.4575 28.2306C23.6493 28.0269 23.8046 27.957 23.9045 27.9434L23.8369 27.448ZM22.4385 28.9323L21.9811 28.7304C21.5786 29.6418 21.3495 30.771 21.3633 31.7693L21.8633 31.7624L22.3632 31.7555C22.3514 30.9001 22.5518 29.9135 22.8959 29.1343L22.4385 28.9323ZM21.8633 31.7624L21.3633 31.7692C21.3679 32.1042 21.4066 32.7014 21.6153 33.245C21.8264 33.7948 22.261 34.3951 23.0921 34.4713L23.1377 33.9734L23.1833 33.4754C22.89 33.4486 22.6917 33.2588 22.5489 32.8866C22.4036 32.5083 22.3673 32.0515 22.3632 31.7556L21.8633 31.7624ZM23.1377 33.9734L23.1096 34.4726C23.6747 34.5044 24.2161 34.2076 24.6358 33.6989C25.0566 33.1888 25.3844 32.438 25.5588 31.451L25.0664 31.364L24.574 31.277C24.4201 32.1479 24.1451 32.7222 23.8644 33.0625C23.5826 33.4041 23.3237 33.483 23.1658 33.4741L23.1377 33.9734ZM25.0664 31.364L25.5589 31.4505C25.7214 30.5257 25.7007 29.5448 25.4818 28.7557L25 28.8894L24.5182 29.023C24.6898 29.6415 24.7161 30.4685 24.574 31.2774L25.0664 31.364ZM25 28.8894L25.4819 28.756C25.3241 28.1858 24.9389 27.2646 23.9943 26.9706L23.8457 27.448L23.6971 27.9254C24.1169 28.0561 24.3755 28.5073 24.5181 29.0228L25 28.8894ZM23.8457 27.448V26.948H23.8369V27.448V27.948H23.8457V27.448ZM2.31055 11.7478L2.73165 12.0173C2.74057 12.0034 2.7471 11.9917 2.75075 11.985C2.75268 11.9815 2.75423 11.9786 2.75522 11.9767C2.75614 11.9749 2.75695 11.9734 2.75703 11.9732C2.75732 11.9727 2.75689 11.9735 2.75633 11.9745C2.75572 11.9757 2.75454 11.978 2.75299 11.9808C2.75009 11.9861 2.74432 11.9964 2.73619 12.0091L2.31543 11.739L1.89467 11.4689C1.88567 11.4829 1.87908 11.4946 1.87537 11.5014C1.87341 11.505 1.87184 11.508 1.87082 11.5099C1.86988 11.5117 1.86905 11.5133 1.86894 11.5135C1.86863 11.5142 1.86905 11.5133 1.86957 11.5123C1.87016 11.5112 1.87131 11.509 1.87284 11.5062C1.87568 11.501 1.88139 11.4908 1.88944 11.4782L2.31055 11.7478ZM2.31543 11.739L2.50282 11.2754L2.45693 11.2569L2.26953 11.7204L2.08214 12.184L2.12804 12.2025L2.31543 11.739ZM2.26953 11.7204L1.99218 12.1365L2.0332 12.1638L2.31055 11.7478L2.5879 11.3317L2.54688 11.3044L2.26953 11.7204Z" fill="white"/>
</svg>
