<svg width="192" height="192" viewBox="0 0 192 192" fill="none" xmlns="http://www.w3.org/2000/svg">
<g filter="url(#filter0_d_56_311)">
<rect x="181.7" y="5.7002" width="172" height="172" rx="20" transform="rotate(90 181.7 5.7002)" fill="white" shape-rendering="crispEdges"/>
<path d="M154.185 48.8462C151.381 43.4114 145.294 40.1471 139.207 39.7495C127.331 38.979 116.091 47.3632 109.417 56.576C104.227 63.7489 101.054 72.1994 99.7147 81.0621C99.411 83.0721 97.7248 84.6202 95.6919 84.6202C93.6591 84.6202 91.9728 83.0721 91.6691 81.0621C90.3301 72.1994 87.1568 63.7489 81.9671 56.576C75.2928 47.3632 64.0533 38.979 52.1769 39.7495C46.0815 40.1471 40.0028 43.4114 37.1991 48.8462C35.3796 52.3756 35.0322 56.4931 35.2638 60.4616C35.851 70.5939 40.2757 80.3204 47.0988 87.7684C50.5063 91.4883 54.5257 94.6697 58.9835 97.0475C63.8465 99.6406 69.4621 100.27 74.1515 103.203V103.286H74.2921C74.2921 103.286 74.3252 103.303 74.3417 103.311L74.4079 103.361C69.9749 108.671 65.2277 113.708 60.6872 118.928C57.3377 122.78 52.3506 126.542 50.7295 131.686C49.0589 137.03 53.3182 141.405 58.0489 143.037C63.7142 144.992 69.7599 142.39 73.8703 138.314C82.0366 130.208 87.7111 119.268 90.482 107.542C91.0595 105.098 93.1874 103.286 95.6989 103.286C98.2115 103.286 100.34 105.099 100.917 107.545C103.682 119.27 109.357 130.208 117.53 138.314C121.632 142.39 127.678 144.992 133.351 143.037C138.074 141.405 142.341 137.03 140.671 131.686C139.058 126.542 134.063 122.78 130.713 118.928C126.173 113.708 121.425 108.671 116.992 103.361L117.059 103.311C121.781 100.279 127.488 99.6738 132.417 97.0392C136.875 94.6614 140.894 91.4883 144.302 87.7601C151.116 80.3121 155.549 70.5857 156.137 60.4533C156.368 56.4849 156.021 52.3673 154.201 48.8379L154.185 48.8462ZM49.704 68.8127C40.4825 63.1459 56.7587 53.7011 61.6714 52.2099C63.2676 51.7211 65.1615 51.8702 66.3773 53.0135C67.1216 53.7094 67.5351 54.687 67.9073 55.6481C72.3627 67.11 73.9234 71.3264 74.1235 82.8752C74.1368 83.6465 73.3048 84.1367 72.6417 83.7427C64.815 79.0931 57.4715 73.5794 49.704 68.8127ZM141.672 68.8127C133.904 73.5797 126.56 79.0936 118.733 83.7434C118.07 84.1372 117.238 83.6475 117.251 82.8765C117.444 71.3267 119.005 67.1104 123.468 55.6481C123.84 54.6953 124.254 53.7177 124.998 53.0135C126.214 51.8785 128.108 51.7294 129.704 52.2099C134.617 53.7011 150.893 63.1459 141.672 68.8127Z" fill="#FF65B4"/>
</g>
<defs>
<filter id="filter0_d_56_311" x="0.000195503" y="0.000195503" width="191.4" height="191.4" filterUnits="userSpaceOnUse" color-interpolation-filters="sRGB">
<feFlood flood-opacity="0" result="BackgroundImageFix"/>
<feColorMatrix in="SourceAlpha" type="matrix" values="0 0 0 0 0 0 0 0 0 0 0 0 0 0 0 0 0 0 127 0" result="hardAlpha"/>
<feOffset dy="4"/>
<feGaussianBlur stdDeviation="4.85"/>
<feComposite in2="hardAlpha" operator="out"/>
<feColorMatrix type="matrix" values="0 0 0 0 0 0 0 0 0 0 0 0 0 0 0 0 0 0 0.25 0"/>
<feBlend mode="normal" in2="BackgroundImageFix" result="effect1_dropShadow_56_311"/>
<feBlend mode="normal" in="SourceGraphic" in2="effect1_dropShadow_56_311" result="shape"/>
</filter>
</defs>
</svg>
