<svg width="43" height="48" viewBox="0 0 43 48" fill="none" xmlns="http://www.w3.org/2000/svg">
<path d="M42.3 0L38.4464 43.195L21.1241 48L3.84956 43.2018L0 0H42.3Z" fill="#6E6E6E"/>
<path d="M35.1471 40.4446L38.4403 3.53247H21.1499V44.3273L35.1471 40.4446Z" fill="#898685"/>
<path d="M8.8252 19.5553L9.29982 24.8538H21.1502V19.5553H8.8252Z" fill="#EBEBEB"/>
<path d="M21.1497 8.83081H21.1314H7.87109L8.35248 14.1294H21.1497V8.83081Z" fill="#EBEBEB"/>
<path d="M21.1499 38.8288V33.3161L21.1267 33.3223L15.229 31.7289L14.852 27.5031H11.9862H9.53613L10.278 35.8225L21.1255 38.8356L21.1499 38.8288Z" fill="#EBEBEB"/>
<path d="M27.6527 24.8536L27.038 31.7254L21.1318 33.3204V38.8328L31.9879 35.8224L32.0676 34.9272L33.312 20.9779L33.4412 19.5551L34.3972 8.83081H21.1318V14.1294H28.5938L28.1119 19.5551H21.1318V24.8536H27.6527Z" fill="white"/>
</svg>
