<svg width="95" height="95" viewBox="0 0 95 95" fill="none" xmlns="http://www.w3.org/2000/svg">
<rect width="95" height="95" fill="#030D20"/>
<path d="M66.6098 20.1082C68.4713 18.0394 71.2822 14.9202 73.3158 15.4295C73.5614 15.4682 73.7155 15.5247 73.8734 15.7108C74.6707 16.5748 74.8577 17.7792 74.4399 19.3983V19.409C73.7198 21.6147 72.5848 23.5885 70.9691 25.4325C69.6485 26.9393 67.9799 28.3793 65.8725 29.8299L65.6195 29.5106C65.8935 29.2647 66.1749 29.008 66.477 28.7411C69.4237 26.1033 73.4628 22.493 73.9477 18.3241C74.0109 17.685 73.9548 16.5819 73.5336 16.1707C73.4108 16.0514 73.2629 16.0019 73.0805 16.0194C72.9997 16.0404 72.9216 16.0618 72.8373 16.0828C72.2895 16.2268 71.728 16.3782 71.3207 16.6942C69.3433 18.201 67.833 20.2065 66.3754 22.1453C65.7045 23.034 65.0118 23.954 64.2777 24.825C63.9863 25.1692 63.8109 25.4785 63.6108 25.8368C63.5054 26.0263 63.3932 26.223 63.2563 26.4442C62.1042 28.4252 59.6836 32.7495 59.0795 33.8524C58.9074 34.2526 58.6582 34.6774 58.3949 35.1268C58.1491 35.5412 57.8959 35.9733 57.7133 36.3807C55.7815 40.6447 54.0255 44.8146 53.727 48.9627C53.9378 50.8206 55.0967 52.9309 57.2143 53.493C58.0178 53.505 58.9597 53.375 59.8822 53.0916C56.7687 50.615 55.268 47.6174 55.7533 44.825C56.1889 42.3278 58.1835 40.3398 61.225 39.3739C62.4542 38.9033 63.5504 38.7593 64.6742 38.9207C66.5428 38.7978 68.454 39.4721 70.1996 40.87C70.4419 40.9859 70.6912 41.0066 71.0072 40.9364H71.018C71.0847 40.9223 71.1587 40.9084 71.2289 40.8944C71.5028 40.8382 71.7382 40.7897 71.8647 40.9618C71.9835 41.123 71.8755 41.3157 71.8402 41.3827L71.8324 41.3973L71.8227 41.411C71.31 42.0606 70.639 42.8365 70.0209 43.0545L69.9926 43.0653H69.9643C69.6132 43.0863 69.4518 42.6792 69.3324 42.3807C69.2201 42.0858 68.9705 41.6749 68.7914 41.4325L68.7455 41.3758C68.4786 41.0914 67.8501 40.5436 67.3373 40.2625C67.0845 40.1326 66.7752 40.1117 66.4486 40.0907C66.28 40.0801 66.1041 40.069 65.932 40.0409H65.9106L65.89 40.0311C64.3307 39.42 62.7151 39.887 61.1557 40.3436C61.0012 40.3892 60.8496 40.4308 60.6986 40.4764C59.3429 41.1718 58.1237 42.6049 57.351 44.4032C56.8206 45.6079 56.7261 46.7322 57.0668 47.8455C57.3478 48.7657 57.9166 49.672 58.8578 50.701L58.8686 50.7118C59.7688 51.8508 60.3789 52.4879 60.8275 52.7401C61.7063 52.3525 62.5131 51.8108 63.0941 51.0975L63.101 51.0907C63.2168 50.9643 63.3293 50.8345 63.4486 50.6942C63.726 50.3747 64.0108 50.0478 64.3022 49.7879L64.3129 49.7811C64.355 49.7495 64.485 49.6511 64.6254 49.7C64.7027 49.7281 64.7596 49.7876 64.7807 49.8719L64.7875 49.9032V49.9383C64.7595 50.2897 64.4986 50.5932 64.2397 50.868C64.0475 51.1492 63.8171 51.416 63.5727 51.6766C63.4653 51.823 63.3535 51.9714 63.2279 52.1024L63.2133 52.1161C63.1178 52.1987 63.014 52.2786 62.9047 52.3582C62.8003 52.4623 62.6961 52.5635 62.5951 52.6678C62.5425 52.724 62.4833 52.7845 62.4272 52.8407C62.1602 53.1076 61.9983 53.2903 62.058 53.494C62.23 53.6344 62.4026 53.7784 62.5746 53.9188C64.7206 55.6889 66.9399 57.5156 68.5941 59.7108C70.4978 62.2396 71.2531 64.7927 70.8949 67.5077C70.5121 70.4123 69.4413 72.8857 67.7133 74.8631C66.1468 76.6509 64.1059 77.9684 61.6508 78.7762C59.9298 79.3417 58.0503 79.6258 56.1361 79.6258V79.6151C54.7453 79.6151 53.3367 79.4646 51.9565 79.159C48.6583 78.432 45.7249 76.8719 43.6947 74.7645C42.1635 73.1734 41.1728 71.3258 40.7514 69.2782C40.2913 67.0408 40.5343 64.6277 41.4721 62.1024C41.8409 60.3779 43.042 59.226 44.4574 58.0037C45.9502 56.5567 48.0328 55.8333 50.4809 55.9071C52.4935 55.9668 54.7343 56.5674 56.7856 57.5965C56.9541 57.6492 57.0844 57.5683 57.1547 57.5086C57.8396 56.6481 58.5808 55.9034 59.3676 55.1131C59.6802 54.797 60.0034 54.4737 60.3266 54.1366C60.453 54.0031 60.5158 53.8763 60.5053 53.7674C60.5012 53.7138 60.4802 53.658 60.4438 53.5994C59.3263 54.0148 58.2101 54.2932 57.5483 54.3748H57.5346L57.5483 54.3787H57.5346C56.1683 54.3542 54.9947 53.686 54.1342 52.4461C53.4283 51.4276 52.9677 50.0506 52.8764 48.6668V48.6571C52.8032 44.5683 54.2403 39.6748 57.1479 34.1102C56.0488 34.431 54.4199 34.8501 52.9223 35.2332C51.4579 35.609 50.0704 35.963 49.6381 36.1141C49.5275 36.1931 49.4682 36.3356 49.4203 36.4979L49.3285 36.8338C49.3118 36.8896 49.294 36.9453 49.2729 36.9998L49.2582 37.0282C47.2 40.6178 44.3829 45.5314 40.8285 49.3036C38.9284 51.3161 36.972 52.8297 35.0121 53.8026C33.147 54.7263 31.2185 55.1903 29.2621 55.1903L29.2592 55.1727C28.8273 55.1727 28.3952 55.1519 27.9633 55.1063H27.9525C23.267 54.3862 20.0636 50.6101 19.1645 44.7479C18.5922 41.0369 19.5285 36.9924 21.7358 33.6424C22.2543 32.373 23.7867 31.021 25.7514 30.1014C27.9325 29.0829 30.2577 28.7917 32.1332 29.3045L32.1889 29.3182L32.2279 29.3641C32.3544 29.5046 32.628 30.0557 32.4174 30.284C32.3507 30.3578 32.1964 30.4528 31.9262 30.2459L31.9086 30.2313L31.894 30.2137C30.505 28.6188 25.9831 30.3899 24.35 31.6014L24.3559 31.6082C21.8937 33.7859 20.4287 37.0351 20.225 40.7547C20.1092 42.9183 20.4251 45.1732 21.1381 47.284C21.8581 49.4055 22.9687 51.3305 24.349 52.8514C25.4343 53.7504 26.7128 54.3228 27.9525 54.4598C37.1058 55.1903 42.3678 46.251 46.5932 39.0682C46.8635 38.6118 47.1264 38.1623 47.3861 37.7235C47.4704 37.5689 47.5483 37.4036 47.6361 37.2244C47.7872 36.9119 47.9414 36.5917 48.1205 36.3143C48.1662 36.2302 48.2298 36.1781 48.2895 36.1395L48.3178 36.0789C48.3389 36.0333 48.3735 35.9668 48.4154 35.8934C48.4857 35.76 48.6333 35.486 48.644 35.4051L48.6508 35.3524C48.6193 35.2158 48.7136 35.1072 48.7455 35.0682L48.7524 35.0604C48.9912 34.811 49.3113 34.2915 49.5326 33.8875C51.2502 30.7545 53.2526 27.727 55.1879 24.7977L55.2436 24.7137C55.4648 24.4152 55.5773 24.1124 55.6967 23.7928C55.8231 23.4557 55.9528 23.1077 56.2162 22.7635L56.2338 22.7459C57.7757 21.1689 59.7186 19.5751 61.8471 18.1385L61.8608 18.1307C61.9661 18.071 62.1843 17.9484 62.3178 18.117C62.4545 18.2925 62.2688 18.4924 62.1459 18.6258C59.7997 21.0704 57.1018 24.0493 54.8539 27.6248L54.6918 27.8709C53.8278 29.1844 52.9323 30.5436 52.2123 31.8993C52.0086 32.3066 51.6722 32.9881 51.8266 33.4412V33.4491C51.8363 33.4619 52.0591 33.7228 54.0395 33.6063C55.23 33.536 56.6136 33.364 57.4389 33.2586C57.5001 33.2508 57.5585 33.2441 57.6137 33.2371C60.2588 28.3701 63.5224 23.9052 65.8441 20.9578L65.9115 20.8768C66.1151 20.6592 66.3571 20.3925 66.6098 20.1082ZM61.1449 54.1893C61.0923 54.1963 61.0568 54.2136 61.0287 54.2557C60.6564 54.923 60.0913 55.5205 59.5434 56.0965C58.883 56.792 58.2015 57.5086 57.8959 58.327C57.9838 58.5762 58.2576 58.815 58.5033 59.0291C58.556 59.0748 58.6055 59.1173 58.6547 59.1629C60.2175 60.3677 60.9553 62.4645 60.5795 64.6385C60.1861 67.5853 58.7704 70.7923 55.9818 70.9471H55.932L55.8861 70.9295C55.7387 70.8664 55.588 70.8095 55.4301 70.7498C54.7979 70.511 54.0778 70.2403 53.6703 69.5975C51.6509 66.7525 52.4202 63.1487 55.9535 58.8953C56.1675 58.5619 56.009 58.4007 55.8686 58.3094C53.4522 56.7782 50.3827 56.3805 48.0541 57.3006L48.0502 57.3084C44.3975 58.9032 42.4093 63.5462 42.3285 67.3114C42.2618 69.9878 43.2424 72.4673 45.1566 74.4764C46.8953 76.3028 49.3815 77.6944 52.1527 78.3934C55.1102 79.1415 58.1981 79.0674 60.85 78.1893C63.7791 77.2164 66.0306 75.3233 67.3617 72.7069L67.3725 72.6893C69.0232 70.0797 69.6479 67.0025 69.1352 64.0311C68.6118 60.9859 66.9189 58.3412 64.3725 56.578H64.3656L64.2992 56.5213C64.1341 56.43 63.8772 56.1979 63.4486 55.8045C62.7673 55.1794 61.6297 54.1335 61.1449 54.1893ZM57.2006 59.4862C56.3753 59.5986 55.5428 60.4831 54.9106 61.9159C54.2994 63.2997 53.9481 65.0323 53.9691 66.5496C53.9833 67.5825 54.215 69.9982 56.0551 70.1668C57.2387 70.2336 58.6758 68.9378 59.2133 65.8963C59.4626 64.4775 59.4234 62.9985 59.1039 61.8465C58.8581 60.9579 58.3311 59.8339 57.2143 59.4862H57.2006ZM21.9643 33.786C21.9673 33.7812 21.97 33.7761 21.9731 33.7713L21.8988 33.743L21.9643 33.786Z" fill="white"/>
<path d="M66.6098 20.1082L66.1839 19.725L66.1816 19.7276L66.6098 20.1082ZM73.3158 15.4295L73.1766 15.9853L73.2015 15.9915L73.2268 15.9955L73.3158 15.4295ZM73.8734 15.7108L73.4367 16.0816L73.4444 16.0906L73.4524 16.0993L73.8734 15.7108ZM74.4399 19.3983L73.8851 19.2551L73.8669 19.3255V19.3983H74.4399ZM74.4399 19.409L74.9845 19.5868L75.0128 19.5002V19.409H74.4399ZM70.9691 25.4325L71.4 25.8101L71.4001 25.81L70.9691 25.4325ZM65.8725 29.8299L65.4234 30.1856L65.756 30.6056L66.1973 30.3018L65.8725 29.8299ZM65.6195 29.5106L65.2369 29.0842L64.8359 29.444L65.1704 29.8663L65.6195 29.5106ZM66.477 28.7411L66.8564 29.1704L66.8591 29.1679L66.477 28.7411ZM73.9477 18.3241L74.5168 18.3903L74.5178 18.3804L73.9477 18.3241ZM73.5336 16.1707L73.9338 15.7608L73.9328 15.7598L73.5336 16.1707ZM73.0805 16.0194L73.0259 15.4491L72.9803 15.4534L72.9359 15.465L73.0805 16.0194ZM72.8373 16.0828L72.6983 15.527L72.6917 15.5287L72.8373 16.0828ZM71.3207 16.6942L71.668 17.1499L71.6719 17.1469L71.3207 16.6942ZM66.3754 22.1453L66.8326 22.4905L66.8333 22.4896L66.3754 22.1453ZM64.2777 24.825L64.7149 25.1953L64.7158 25.1942L64.2777 24.825ZM63.6108 25.8368L63.1106 25.5573L63.1099 25.5585L63.6108 25.8368ZM63.2563 26.4442L62.7691 26.1426L62.765 26.1493L62.761 26.1562L63.2563 26.4442ZM59.0795 33.8524L58.577 33.5771L58.5639 33.601L58.5532 33.6261L59.0795 33.8524ZM58.3949 35.1268L58.8877 35.4191L58.8892 35.4164L58.3949 35.1268ZM57.7133 36.3807L58.2352 36.6171L58.2361 36.6151L57.7133 36.3807ZM53.727 48.9627L53.1555 48.9216L53.1517 48.9746L53.1577 49.0273L53.727 48.9627ZM57.2143 53.493L57.0673 54.0467L57.1353 54.0648L57.2057 54.0659L57.2143 53.493ZM59.8822 53.0916L60.0505 53.6393L61.0897 53.32L60.2389 52.6433L59.8822 53.0916ZM55.7533 44.825L55.1889 44.7266L55.1889 44.7269L55.7533 44.825ZM61.225 39.3739L61.3984 39.9199L61.4143 39.9149L61.4299 39.9089L61.225 39.3739ZM64.6742 38.9207L64.5927 39.4878L64.652 39.4964L64.7118 39.4924L64.6742 38.9207ZM70.1996 40.87L69.8415 41.3172L69.893 41.3584L69.9524 41.3868L70.1996 40.87ZM71.0072 40.9364V40.3634H70.9444L70.883 40.3771L71.0072 40.9364ZM71.018 40.9364V41.5093H71.0776L71.136 41.497L71.018 40.9364ZM71.2289 40.8944L71.3413 41.4562L71.344 41.4556L71.2289 40.8944ZM71.8647 40.9618L71.4029 41.301L71.4035 41.3017L71.8647 40.9618ZM71.8402 41.3827L72.3458 41.6523L72.3472 41.6496L71.8402 41.3827ZM71.8324 41.3973L72.2986 41.7303L72.3204 41.6999L72.3379 41.6669L71.8324 41.3973ZM71.8227 41.411L72.2724 41.7659L72.2809 41.7551L72.2889 41.744L71.8227 41.411ZM70.0209 43.0545L69.8303 42.5141L69.8177 42.5188L70.0209 43.0545ZM69.9926 43.0653V43.6382H70.0976L70.1958 43.601L69.9926 43.0653ZM69.9643 43.0653V42.4923H69.9471L69.93 42.4934L69.9643 43.0653ZM69.3324 42.3807L68.797 42.5847L68.8005 42.5935L69.3324 42.3807ZM68.7914 41.4325L69.2522 41.092L69.2446 41.0817L69.2365 41.0718L68.7914 41.4325ZM68.7455 41.3758L69.1906 41.0151L69.1775 40.999L69.1633 40.9838L68.7455 41.3758ZM67.3373 40.2625L67.6127 39.7601L67.606 39.7565L67.5992 39.753L67.3373 40.2625ZM66.4486 40.0907L66.4855 39.5189L66.4844 39.5189L66.4486 40.0907ZM65.932 40.0409L66.0244 39.4754L65.9785 39.4679H65.932V40.0409ZM65.9106 40.0409L65.6642 40.5581L65.7811 40.6138H65.9106V40.0409ZM65.89 40.0311L66.1364 39.5138L66.118 39.5051L66.0991 39.4977L65.89 40.0311ZM61.1557 40.3436L60.9947 39.7938L60.9933 39.7941L61.1557 40.3436ZM60.6986 40.4764L60.5328 39.928L60.4833 39.943L60.4372 39.9666L60.6986 40.4764ZM57.351 44.4032L57.8754 44.634L57.8774 44.6294L57.351 44.4032ZM57.0668 47.8455L57.6148 47.6782L57.6147 47.6779L57.0668 47.8455ZM58.8578 50.701L58.4351 51.0877L58.4437 51.0971L58.4527 51.1061L58.8578 50.701ZM58.8686 50.7118L59.3181 50.3565L59.2973 50.3303L59.2737 50.3066L58.8686 50.7118ZM60.8275 52.7401L60.5468 53.2395L60.7966 53.3799L61.0588 53.2643L60.8275 52.7401ZM63.0941 51.0975L62.689 50.6924L62.6684 50.713L62.6499 50.7357L63.0941 51.0975ZM63.101 51.0907L63.5061 51.4958L63.5149 51.487L63.5233 51.4778L63.101 51.0907ZM63.4486 50.6942L63.016 50.3186L63.0121 50.3231L63.4486 50.6942ZM64.3022 49.7879L63.9946 49.3046L63.9554 49.3295L63.9208 49.3603L64.3022 49.7879ZM64.3129 49.7811L64.6205 50.2644L64.639 50.2526L64.6567 50.2394L64.3129 49.7811ZM64.6254 49.7L64.8212 49.1616L64.814 49.1591L64.6254 49.7ZM64.7807 49.8719L65.3404 49.7495L65.3385 49.7412L65.3365 49.733L64.7807 49.8719ZM64.7875 49.9032H65.3604V49.8412L65.3472 49.7807L64.7875 49.9032ZM64.7875 49.9383L65.3586 49.9838L65.3604 49.9611V49.9383H64.7875ZM64.2397 50.868L63.8227 50.4751L63.7919 50.5078L63.7666 50.5448L64.2397 50.868ZM63.5727 51.6766L63.1548 51.2847L63.1311 51.3099L63.1106 51.3378L63.5727 51.6766ZM63.2279 52.1024L63.6189 52.5212L63.6304 52.5104L63.6414 52.499L63.2279 52.1024ZM63.2133 52.1161L63.5885 52.549L63.5965 52.5421L63.6042 52.5349L63.2133 52.1161ZM62.9047 52.3582L62.5675 51.8951L62.5315 51.9212L62.5001 51.9526L62.9047 52.3582ZM62.5951 52.6678L62.1834 52.2693L62.1772 52.276L62.5951 52.6678ZM62.4272 52.8407L62.022 52.4355L62.4272 52.8407ZM62.058 53.494L61.5082 53.6551L61.5582 53.8255L61.6957 53.9378L62.058 53.494ZM62.5746 53.9188L62.9392 53.4768L62.9369 53.475L62.5746 53.9188ZM68.5941 59.7108L69.0519 59.3662L69.0517 59.366L68.5941 59.7108ZM70.8949 67.5077L70.3269 67.4327L70.3269 67.4328L70.8949 67.5077ZM67.7133 74.8631L68.1442 75.2407L68.1447 75.2401L67.7133 74.8631ZM61.6508 78.7762L61.8296 79.3205L61.8299 79.3204L61.6508 78.7762ZM56.1361 79.6258H55.5632V80.1987L56.1361 80.1987L56.1361 79.6258ZM56.1361 79.6151H56.7091V79.0422H56.1361V79.6151ZM51.9565 79.159L52.0803 78.5996L52.0798 78.5995L51.9565 79.159ZM43.6947 74.7645L43.2819 75.1618L43.2821 75.162L43.6947 74.7645ZM40.7514 69.2782L40.1902 69.3936L40.1902 69.3937L40.7514 69.2782ZM41.4721 62.1024L42.0092 62.3018L42.0236 62.2629L42.0323 62.2222L41.4721 62.1024ZM44.4574 58.0037L44.8319 58.4374L44.8444 58.4266L44.8562 58.4151L44.4574 58.0037ZM50.4809 55.9071L50.4636 56.4797L50.4639 56.4797L50.4809 55.9071ZM56.7856 57.5965L56.5286 58.1086L56.5702 58.1295L56.6147 58.1434L56.7856 57.5965ZM57.1547 57.5086L57.5256 57.9453L57.5682 57.9091L57.603 57.8654L57.1547 57.5086ZM59.3676 55.1131L59.7736 55.5173L59.775 55.516L59.3676 55.1131ZM60.3266 54.1366L60.7402 54.533L60.7425 54.5306L60.3266 54.1366ZM60.5053 53.7674L59.9339 53.8106L59.935 53.8226L60.5053 53.7674ZM60.4438 53.5994L60.9302 53.2968L60.683 52.8993L60.2441 53.0624L60.4438 53.5994ZM57.5483 54.3748V54.9478H57.5834L57.6184 54.9435L57.5483 54.3748ZM57.5346 54.3748V53.8019L57.3772 54.9257L57.5346 54.3748ZM57.5483 54.3787V54.9517L57.7056 53.8279L57.5483 54.3787ZM57.5346 54.3787L57.5243 54.9517H57.5346V54.3787ZM54.1342 52.4461L53.6633 52.7725L53.6635 52.7728L54.1342 52.4461ZM52.8764 48.6668H52.3035V48.6857L52.3047 48.7046L52.8764 48.6668ZM52.8764 48.6571H53.4494L53.4492 48.6468L52.8764 48.6571ZM57.1479 34.1102L57.6556 34.3755L58.2785 33.1834L56.9873 33.5602L57.1479 34.1102ZM52.9223 35.2332L52.7803 34.6782L52.7799 34.6783L52.9223 35.2332ZM49.6381 36.1141L49.4491 35.5733L49.3717 35.6003L49.3051 35.6479L49.6381 36.1141ZM49.4203 36.4979L48.8707 36.3357L48.8677 36.3469L49.4203 36.4979ZM49.3285 36.8338L49.8776 36.9981L49.8812 36.9848L49.3285 36.8338ZM49.2729 36.9998L49.7817 37.2631L49.796 37.2355L49.8071 37.2067L49.2729 36.9998ZM49.2582 37.0282L49.7552 37.3131L49.7614 37.3024L49.7671 37.2914L49.2582 37.0282ZM40.8285 49.3036L41.2451 49.6969L41.2455 49.6965L40.8285 49.3036ZM35.0121 53.8026L35.2664 54.316L35.2669 54.3157L35.0121 53.8026ZM29.2621 55.1903L28.697 55.2845L28.7768 55.7632H29.2621V55.1903ZM29.2592 55.1727L29.8243 55.0785L29.7445 54.5998H29.2592V55.1727ZM27.9633 55.1063L28.0235 54.5365L27.9935 54.5334H27.9633V55.1063ZM27.9525 55.1063L27.8655 55.6726L27.9088 55.6792H27.9525V55.1063ZM19.1645 44.7479L19.7308 44.661L19.7307 44.6606L19.1645 44.7479ZM21.7358 33.6424L22.2142 33.9576L22.245 33.9109L22.2661 33.8591L21.7358 33.6424ZM25.7514 30.1014L25.509 29.5823L25.5085 29.5825L25.7514 30.1014ZM32.1332 29.3045L31.9821 29.8572L31.9893 29.8591L31.9966 29.8609L32.1332 29.3045ZM32.1889 29.3182L32.6252 28.9469L32.5052 28.806L32.3255 28.7618L32.1889 29.3182ZM32.2279 29.3641L31.7916 29.7354L31.7968 29.7414L31.802 29.7473L32.2279 29.3641ZM32.4174 30.284L31.9963 29.8955L31.9925 29.8996L32.4174 30.284ZM31.9262 30.2459L31.5594 30.6861L31.5685 30.6936L31.5779 30.7008L31.9262 30.2459ZM31.9086 30.2313L31.4685 30.5981L31.5018 30.6381L31.5418 30.6714L31.9086 30.2313ZM31.894 30.2137L32.3342 29.8468L32.326 29.8374L31.894 30.2137ZM24.35 31.6014L24.0087 31.1413L23.515 31.5075L23.915 31.9743L24.35 31.6014ZM24.3559 31.6082L24.7354 32.0374L25.158 31.6637L24.7909 31.2354L24.3559 31.6082ZM20.225 40.7547L19.6529 40.7234L19.6529 40.7241L20.225 40.7547ZM21.1381 47.284L20.5953 47.4674L20.5956 47.4682L21.1381 47.284ZM24.349 52.8514L23.9248 53.2364L23.9522 53.2666L23.9835 53.2926L24.349 52.8514ZM27.9525 54.4598L27.8896 55.0293L27.8983 55.0302L27.907 55.0309L27.9525 54.4598ZM46.5932 39.0682L46.1002 38.7762L46.0994 38.7777L46.5932 39.0682ZM47.3861 37.7235L47.8791 38.0153L47.8843 38.0067L47.8891 37.9978L47.3861 37.7235ZM47.6361 37.2244L48.1506 37.4766L48.152 37.4737L47.6361 37.2244ZM48.1205 36.3143L48.6018 36.625L48.6137 36.6067L48.6241 36.5875L48.1205 36.3143ZM48.2895 36.1395L48.6007 36.6205L48.7388 36.5312L48.8084 36.3822L48.2895 36.1395ZM48.3178 36.0789L48.8367 36.3217L48.8378 36.3194L48.3178 36.0789ZM48.4154 35.8934L48.9129 36.1776L48.9178 36.169L48.9224 36.1602L48.4154 35.8934ZM48.644 35.4051L49.212 35.4799L49.2121 35.4788L48.644 35.4051ZM48.6508 35.3524L49.219 35.426L49.2322 35.3239L49.209 35.2236L48.6508 35.3524ZM48.7455 35.0682L48.3143 34.6909L48.3082 34.6979L48.3023 34.7052L48.7455 35.0682ZM48.7524 35.0604L48.3386 34.6641L48.3297 34.6734L48.3212 34.6831L48.7524 35.0604ZM49.5326 33.8875L49.0302 33.6121L49.0302 33.6123L49.5326 33.8875ZM55.1879 24.7977L54.7103 24.4812L54.7099 24.4819L55.1879 24.7977ZM55.2436 24.7137L54.7833 24.3726L54.7743 24.3846L54.766 24.3972L55.2436 24.7137ZM55.6967 23.7928L55.1602 23.5916L55.16 23.5923L55.6967 23.7928ZM56.2162 22.7635L55.8111 22.3584L55.7843 22.3852L55.7612 22.4153L56.2162 22.7635ZM56.2338 22.7459L56.6389 23.1511L56.6434 23.1465L56.2338 22.7459ZM61.8471 18.1385L61.5628 17.6411L61.5443 17.6517L61.5266 17.6636L61.8471 18.1385ZM61.8608 18.1307L61.5783 17.6322L61.5765 17.6333L61.8608 18.1307ZM62.3178 18.117L62.7696 17.7648L62.767 17.7614L62.3178 18.117ZM62.1459 18.6258L62.5593 19.0226L62.5673 19.014L62.1459 18.6258ZM54.8539 27.6248L55.3325 27.9401L55.3389 27.9298L54.8539 27.6248ZM54.6918 27.8709L54.2134 27.5558L54.2131 27.5561L54.6918 27.8709ZM52.2123 31.8993L51.7062 31.6304L51.6999 31.643L52.2123 31.8993ZM51.8266 33.4412H52.3995V33.3463L52.3689 33.2565L51.8266 33.4412ZM51.8266 33.4491H51.2536V33.6409L51.3692 33.794L51.8266 33.4491ZM54.0395 33.6063L54.0731 34.1782L54.0732 34.1782L54.0395 33.6063ZM57.4389 33.2586L57.5114 33.8269L57.512 33.8269L57.4389 33.2586ZM57.6137 33.2371L57.6858 33.8055L57.9769 33.7686L58.1171 33.5107L57.6137 33.2371ZM65.8441 20.9578L65.4036 20.5916L65.3988 20.5974L65.3941 20.6033L65.8441 20.9578ZM65.9115 20.8768L65.4931 20.4854L65.4817 20.4976L65.471 20.5105L65.9115 20.8768ZM61.1449 54.1893L61.0794 53.62L61.0692 53.6214L61.1449 54.1893ZM61.0287 54.2557L60.5521 53.9377L60.5395 53.9567L60.5284 53.9766L61.0287 54.2557ZM59.5434 56.0965L59.1283 55.7017L59.1279 55.702L59.5434 56.0965ZM57.8959 58.327L57.3592 58.1266L57.2864 58.3215L57.3556 58.5176L57.8959 58.327ZM58.5033 59.0291L58.1269 59.4611L58.1281 59.4621L58.5033 59.0291ZM58.6547 59.1629L58.2649 59.5828L58.2841 59.6006L58.3049 59.6167L58.6547 59.1629ZM60.5795 64.6385L60.015 64.5409L60.0131 64.5518L60.0116 64.5627L60.5795 64.6385ZM55.9818 70.9471V71.52H55.9977L56.0136 71.5191L55.9818 70.9471ZM55.932 70.9471L55.7271 71.4821L55.8261 71.52H55.932V70.9471ZM55.8861 70.9295L55.6605 71.4561L55.6708 71.4605L55.6812 71.4646L55.8861 70.9295ZM55.4301 70.7498L55.2276 71.2858L55.2276 71.2858L55.4301 70.7498ZM53.6703 69.5975L54.1542 69.2908L54.1462 69.2781L54.1375 69.2659L53.6703 69.5975ZM55.9535 58.8953L56.3942 59.2614L56.4167 59.2344L56.4357 59.2047L55.9535 58.8953ZM55.8686 58.3094L56.1808 57.829L56.1752 57.8255L55.8686 58.3094ZM48.0541 57.3006L47.8436 56.7678L47.6397 56.8483L47.5417 57.0444L48.0541 57.3006ZM48.0502 57.3084L48.2794 57.8335L48.4698 57.7504L48.5626 57.5647L48.0502 57.3084ZM42.3285 67.3114L42.9013 67.3256L42.9013 67.3237L42.3285 67.3114ZM45.1566 74.4764L45.5716 74.0814L45.5714 74.0812L45.1566 74.4764ZM52.1527 78.3934L52.2932 77.838L52.2929 77.8379L52.1527 78.3934ZM60.85 78.1893L61.0301 78.7332L61.0306 78.733L60.85 78.1893ZM67.3617 72.7069L66.8729 72.4081L66.8612 72.4272L66.8511 72.4471L67.3617 72.7069ZM67.3725 72.6893L66.8882 72.383L66.8836 72.3905L67.3725 72.6893ZM69.1352 64.0311L68.5705 64.1281L68.5706 64.1285L69.1352 64.0311ZM64.3725 56.578L64.6986 56.1069L64.5515 56.005H64.3725V56.578ZM64.3656 56.578L63.9938 57.0139L64.1545 57.1509H64.3656V56.578ZM64.2992 56.5213L64.671 56.0854L64.6271 56.048L64.5766 56.02L64.2992 56.5213ZM63.4486 55.8045L63.8361 55.3825L63.836 55.3824L63.4486 55.8045ZM57.2006 59.4862V58.9132H57.1618L57.1233 58.9185L57.2006 59.4862ZM54.9106 61.9159L55.4346 62.1473L55.4347 62.1471L54.9106 61.9159ZM53.9691 66.5496L54.542 66.5418L54.542 66.5417L53.9691 66.5496ZM56.0551 70.1668L56.0028 70.7374L56.0128 70.7383L56.0228 70.7388L56.0551 70.1668ZM59.2133 65.8963L59.7775 65.996L59.7776 65.9955L59.2133 65.8963ZM59.1039 61.8465L58.5517 61.9993L58.5518 61.9996L59.1039 61.8465ZM57.2143 59.4862L57.3846 58.9392L57.3014 58.9132H57.2143V59.4862ZM21.9643 33.786L21.6498 34.2649L22.1343 34.583L22.4468 34.0949L21.9643 33.786ZM21.9731 33.7713L22.4551 34.0809L22.8362 33.4875L22.1773 33.236L21.9731 33.7713ZM21.8988 33.743L22.1031 33.2077L21.5843 34.2219L21.8988 33.743ZM66.6098 20.1082L67.0357 20.4915C67.9724 19.4504 69.1114 18.1875 70.2614 17.2453C70.8357 16.7747 71.3899 16.4035 71.9015 16.1797C72.4147 15.9551 72.8359 15.9 73.1766 15.9853L73.3158 15.4295L73.455 14.8738C72.7789 14.7044 72.0861 14.8482 71.4422 15.1299C70.7966 15.4124 70.1505 15.8548 69.5351 16.3589C68.3059 17.3662 67.1087 18.6973 66.1839 19.725L66.6098 20.1082ZM73.3158 15.4295L73.2268 15.9955C73.3304 16.0118 73.3667 16.0253 73.3818 16.0324C73.3873 16.0351 73.4025 16.0414 73.4367 16.0816L73.8734 15.7108L74.3102 15.34C74.1864 15.1942 74.0456 15.0792 73.8732 14.9973C73.7104 14.92 73.5469 14.8859 73.4048 14.8636L73.3158 15.4295ZM73.8734 15.7108L73.4524 16.0993C74.0673 16.7657 74.2764 17.7391 73.8851 19.2551L74.4399 19.3983L74.9946 19.5415C75.4391 17.8194 75.2741 16.3838 74.2945 15.3222L73.8734 15.7108ZM74.4399 19.3983H73.8669V19.409H74.4399H75.0128V19.3983H74.4399ZM74.4399 19.409L73.8952 19.2312C73.2004 21.3597 72.1054 23.2662 70.5382 25.0549L70.9691 25.4325L71.4001 25.81C73.0641 23.9108 74.2392 21.8698 74.9845 19.5868L74.4399 19.409ZM70.9691 25.4325L70.5383 25.0548C69.2561 26.5177 67.6261 27.9273 65.5476 29.358L65.8725 29.8299L66.1973 30.3018C68.3337 28.8313 70.0409 27.3608 71.4 25.8101L70.9691 25.4325ZM65.8725 29.8299L66.3216 29.4742L66.0687 29.1549L65.6195 29.5106L65.1704 29.8663L65.4234 30.1856L65.8725 29.8299ZM65.6195 29.5106L66.0022 29.937C66.281 29.6868 66.5562 29.4356 66.8563 29.1704L66.477 28.7411L66.0976 28.3117C65.7936 28.5803 65.506 28.8427 65.2369 29.0842L65.6195 29.5106ZM66.477 28.7411L66.8591 29.1679C68.3272 27.8538 70.1072 26.2632 71.5784 24.4702C73.0471 22.6803 74.2559 20.6328 74.5167 18.3903L73.9477 18.3241L73.3786 18.2579C73.1545 20.1843 72.1014 22.0264 70.6926 23.7433C69.2864 25.4571 67.5735 26.9906 66.0949 28.3142L66.477 28.7411ZM73.9477 18.3241L74.5178 18.3804C74.5534 18.0209 74.5555 17.5385 74.4893 17.0801C74.4281 16.6557 74.2897 16.1082 73.9338 15.7608L73.5336 16.1707L73.1334 16.5807C73.1987 16.6445 73.299 16.8541 73.3552 17.2438C73.4066 17.5994 73.4052 17.9881 73.3775 18.2677L73.9477 18.3241ZM73.5336 16.1707L73.9328 15.7598C73.6804 15.5146 73.3627 15.4168 73.0259 15.4491L73.0805 16.0194L73.135 16.5897C73.1478 16.5885 73.1541 16.589 73.1553 16.5891C73.1561 16.5892 73.1531 16.5889 73.1478 16.5871C73.1423 16.5853 73.1374 16.5829 73.1339 16.5807C73.1306 16.5786 73.1308 16.5782 73.1344 16.5817L73.5336 16.1707ZM73.0805 16.0194L72.9359 15.465C72.8464 15.4883 72.7795 15.5067 72.6984 15.527L72.8373 16.0828L72.9763 16.6387C73.0637 16.6168 73.153 16.5925 73.2251 16.5737L73.0805 16.0194ZM72.8373 16.0828L72.6917 15.5287C72.1705 15.6657 71.4863 15.8406 70.9695 16.2415L71.3207 16.6942L71.6719 17.1469C71.9698 16.9157 72.4086 16.7879 72.9829 16.637L72.8373 16.0828ZM71.3207 16.6942L70.9735 16.2385C68.9226 17.8012 67.367 19.8729 65.9175 21.8011L66.3754 22.1453L66.8333 22.4896C68.299 20.5401 69.764 18.6007 71.668 17.1499L71.3207 16.6942ZM66.3754 22.1453L65.9181 21.8002C65.2453 22.6914 64.562 23.5986 63.8396 24.4558L64.2777 24.825L64.7158 25.1942C65.4616 24.3093 66.1638 23.3765 66.8326 22.4905L66.3754 22.1453ZM64.2777 24.825L63.8405 24.4548C63.5099 24.8452 63.3115 25.1978 63.1106 25.5573L63.6108 25.8368L64.1109 26.1162C64.3103 25.7593 64.4626 25.4932 64.7149 25.1953L64.2777 24.825ZM63.6108 25.8368L63.1099 25.5585C63.007 25.7437 62.8996 25.9319 62.7691 26.1426L63.2563 26.4442L63.7434 26.7457C63.8868 26.5141 64.0038 26.309 64.1116 26.115L63.6108 25.8368ZM63.2563 26.4442L62.761 26.1562C61.6059 28.1424 59.1828 32.4712 58.577 33.5771L59.0795 33.8524L59.582 34.1276C60.1844 33.0278 62.6025 28.7079 63.7515 26.7322L63.2563 26.4442ZM59.0795 33.8524L58.5532 33.6261C58.398 33.9871 58.169 34.3792 57.9006 34.8372L58.3949 35.1268L58.8892 35.4164C59.1475 34.9757 59.4169 34.5182 59.6058 34.0787L59.0795 33.8524ZM58.3949 35.1268L57.9022 34.8345C57.6587 35.2449 57.3886 35.7044 57.1905 36.1463L57.7133 36.3807L58.2361 36.6151C58.4032 36.2422 58.6394 35.8376 58.8877 35.4191L58.3949 35.1268ZM57.7133 36.3807L57.1914 36.1443C55.2637 40.3992 53.4624 44.6573 53.1555 48.9216L53.727 48.9627L54.2984 49.0039C54.5886 44.9719 56.2992 40.8903 58.2352 36.6171L57.7133 36.3807ZM53.727 48.9627L53.1577 49.0273C53.3838 51.0194 54.6377 53.4018 57.0673 54.0467L57.2143 53.493L57.3613 52.9393C55.5557 52.46 54.4919 50.6218 54.2962 48.8981L53.727 48.9627ZM57.2143 53.493L57.2057 54.0659C58.0726 54.0788 59.0742 53.9392 60.0505 53.6393L59.8822 53.0916L59.714 52.544C58.8453 52.8108 57.963 52.9312 57.2228 52.9201L57.2143 53.493ZM59.8822 53.0916L60.2389 52.6433C57.214 50.2372 55.8823 47.429 56.3178 44.9231L55.7533 44.825L55.1889 44.7269C54.6537 47.8058 56.3234 50.9929 59.5256 53.54L59.8822 53.0916ZM55.7533 44.825L56.3177 44.9235C56.7065 42.6941 58.4982 40.841 61.3984 39.9199L61.225 39.3739L61.0516 38.8278C57.8688 39.8386 55.6712 41.9616 55.1889 44.7266L55.7533 44.825ZM61.225 39.3739L61.4299 39.9089C62.5825 39.4676 63.5799 39.3423 64.5927 39.4878L64.6742 38.9207L64.7557 38.3536C63.5208 38.1762 62.3259 38.3389 61.0202 38.8388L61.225 39.3739ZM64.6742 38.9207L64.7118 39.4924C66.4107 39.3807 68.1846 39.9903 69.8415 41.3172L70.1996 40.87L70.5577 40.4228C68.7233 38.9538 66.6749 38.215 64.6366 38.3491L64.6742 38.9207ZM70.1996 40.87L69.9524 41.3868C70.3322 41.5685 70.7163 41.5879 71.1315 41.4956L71.0072 40.9364L70.883 40.3771C70.666 40.4253 70.5516 40.4032 70.4468 40.3531L70.1996 40.87ZM71.0072 40.9364V41.5093H71.018V40.9364V40.3634H71.0072V40.9364ZM71.018 40.9364L71.136 41.497C71.2 41.4835 71.2607 41.4723 71.3413 41.4562L71.2289 40.8944L71.1166 40.3326C71.0566 40.3446 70.9694 40.3611 70.9 40.3757L71.018 40.9364ZM71.2289 40.8944L71.344 41.4556C71.4156 41.4409 71.4677 41.4303 71.5143 41.4231C71.5608 41.4158 71.5827 41.4151 71.5897 41.4153C71.5959 41.4154 71.5687 41.416 71.5262 41.3979C71.5042 41.3886 71.4806 41.3752 71.4576 41.3571C71.4347 41.339 71.4165 41.3194 71.4029 41.301L71.8647 40.9618L72.3264 40.6225C72.1219 40.3443 71.8305 40.2744 71.6145 40.2697C71.4275 40.2656 71.2303 40.3092 71.1138 40.3331L71.2289 40.8944ZM71.8647 40.9618L71.4035 41.3017C71.3735 41.2611 71.3555 41.2134 71.3489 41.1681C71.3429 41.1267 71.3479 41.0975 71.3502 41.0867C71.3525 41.0759 71.3545 41.0733 71.3514 41.0802C71.348 41.088 71.3453 41.0929 71.3333 41.1157L71.8402 41.3827L72.3472 41.6496C72.3593 41.6266 72.4346 41.494 72.4703 41.3284C72.5086 41.1507 72.5139 40.877 72.3258 40.6218L71.8647 40.9618ZM71.8402 41.3827L71.3347 41.113L71.3269 41.1277L71.8324 41.3973L72.3379 41.6669L72.3458 41.6523L71.8402 41.3827ZM71.8324 41.3973L71.3662 41.0643L71.3565 41.078L71.8227 41.411L72.2889 41.744L72.2986 41.7303L71.8324 41.3973ZM71.8227 41.411L71.3729 41.056C71.1209 41.3754 70.843 41.7088 70.5606 41.9851C70.2682 42.2712 70.0188 42.4478 69.8303 42.5142L70.0209 43.0545L70.2115 43.5948C70.6411 43.4433 71.0362 43.1229 71.362 42.8041C71.6978 42.4756 72.0118 42.0962 72.2724 41.7659L71.8227 41.411ZM70.0209 43.0545L69.8177 42.5188L69.7894 42.5296L69.9926 43.0653L70.1958 43.601L70.2241 43.5902L70.0209 43.0545ZM69.9926 43.0653V42.4923H69.9643V43.0653V43.6382H69.9926V43.0653ZM69.9643 43.0653L69.93 42.4934C69.9638 42.4913 70.002 42.5017 70.0293 42.5181C70.0489 42.5299 70.0455 42.5343 70.025 42.5061C70.0048 42.4783 69.9801 42.4357 69.9509 42.3734C69.9217 42.3112 69.8953 42.2453 69.8644 42.1679L69.3324 42.3807L68.8005 42.5935C68.8539 42.7269 68.949 42.9745 69.098 43.1796C69.2564 43.3977 69.5492 43.6641 69.9986 43.6372L69.9643 43.0653ZM69.3324 42.3807L69.8678 42.1767C69.7303 41.8158 69.4489 41.3582 69.2522 41.092L68.7914 41.4325L68.3306 41.7729C68.4922 41.9916 68.7099 42.3558 68.797 42.5847L69.3324 42.3807ZM68.7914 41.4325L69.2365 41.0718L69.1906 41.0151L68.7455 41.3758L68.3004 41.7365L68.3463 41.7932L68.7914 41.4325ZM68.7455 41.3758L69.1633 40.9838C68.8692 40.6704 68.194 40.0787 67.6127 39.7601L67.3373 40.2625L67.0619 40.7649C67.5062 41.0084 68.088 41.5124 68.3277 41.7678L68.7455 41.3758ZM67.3373 40.2625L67.5992 39.753C67.2204 39.5583 66.7824 39.5381 66.4855 39.5189L66.4486 40.0907L66.4118 40.6624C66.768 40.6854 66.9486 40.7069 67.0754 40.7721L67.3373 40.2625ZM66.4486 40.0907L66.4844 39.5189C66.3117 39.5081 66.1639 39.4982 66.0244 39.4754L65.932 40.0409L65.8397 40.6063C66.0444 40.6397 66.2484 40.6522 66.4129 40.6625L66.4486 40.0907ZM65.932 40.0409V39.4679H65.9106V40.0409V40.6138H65.932V40.0409ZM65.9106 40.0409L66.1569 39.5236L66.1364 39.5138L65.89 40.0311L65.6437 40.5484L65.6642 40.5581L65.9106 40.0409ZM65.89 40.0311L66.0991 39.4977C64.3274 38.8034 62.5161 39.3483 60.9947 39.7938L61.1557 40.3436L61.3167 40.8934C62.914 40.4257 64.3339 40.0366 65.681 40.5645L65.89 40.0311ZM61.1557 40.3436L60.9933 39.7941C60.8613 39.8332 60.6782 39.8841 60.5328 39.928L60.6986 40.4764L60.8644 41.0248C61.0211 40.9774 61.141 40.9453 61.318 40.893L61.1557 40.3436ZM60.6986 40.4764L60.4372 39.9666C58.9319 40.7387 57.6344 42.2925 56.8246 44.177L57.351 44.4032L57.8774 44.6294C58.613 42.9174 59.7539 41.6049 60.9601 40.9862L60.6986 40.4764ZM57.351 44.4032L56.8266 44.1723C56.249 45.4844 56.1326 46.7505 56.519 48.0132L57.0668 47.8455L57.6147 47.6779C57.3197 46.7139 57.3923 45.7313 57.8753 44.634L57.351 44.4032ZM57.0668 47.8455L56.5189 48.0129C56.8334 49.0429 57.4604 50.0221 58.4351 51.0877L58.8578 50.701L59.2806 50.3143C58.3729 49.3219 57.8622 48.4885 57.6148 47.6782L57.0668 47.8455ZM58.8578 50.701L58.4527 51.1061L58.4634 51.1169L58.8686 50.7118L59.2737 50.3066L59.2629 50.2959L58.8578 50.701ZM58.8686 50.7118L58.4191 51.067C58.8744 51.6431 59.2651 52.1036 59.6049 52.4561C59.9395 52.8033 60.25 53.0727 60.5468 53.2395L60.8275 52.7401L61.1082 52.2406C60.9564 52.1553 60.7375 51.9801 60.4299 51.6609C60.1274 51.3471 59.763 50.9195 59.3181 50.3565L58.8686 50.7118ZM60.8275 52.7401L61.0588 53.2643C61.9946 52.8515 62.8847 52.2617 63.5383 51.4593L63.0941 51.0975L62.6499 50.7357C62.1415 51.3598 61.418 51.8535 60.5963 52.2159L60.8275 52.7401ZM63.0941 51.0975L63.4993 51.5026L63.5061 51.4958L63.101 51.0907L62.6959 50.6855L62.689 50.6924L63.0941 51.0975ZM63.101 51.0907L63.5233 51.4778C63.6461 51.3439 63.7639 51.2079 63.8852 51.0652L63.4486 50.6942L63.0121 50.3231C62.8948 50.4611 62.7875 50.5848 62.6787 50.7035L63.101 51.0907ZM63.4486 50.6942L63.8813 51.0698C64.1637 50.7444 64.4243 50.4466 64.6835 50.2155L64.3022 49.7879L63.9208 49.3603C63.5972 49.649 63.2883 50.005 63.016 50.3186L63.4486 50.6942ZM64.3022 49.7879L64.6097 50.2713L64.6205 50.2644L64.3129 49.7811L64.0053 49.2977L63.9946 49.3046L64.3022 49.7879ZM64.3129 49.7811L64.6567 50.2394C64.6764 50.2246 64.6676 50.2332 64.6476 50.2413C64.6246 50.2506 64.5418 50.2776 64.4368 50.241L64.6254 49.7L64.814 49.1591C64.5686 49.0735 64.3506 49.1252 64.217 49.1794C64.0863 49.2324 63.9915 49.306 63.9691 49.3228L64.3129 49.7811ZM64.6254 49.7L64.4296 50.2385C64.3878 50.2233 64.3418 50.1957 64.3019 50.1522C64.2614 50.1081 64.2366 50.0577 64.2249 50.0109L64.7807 49.8719L65.3365 49.733C65.2674 49.4567 65.0702 49.2522 64.8212 49.1616L64.6254 49.7ZM64.7807 49.8719L64.221 49.9943L64.2278 50.0256L64.7875 49.9032L65.3472 49.7807L65.3404 49.7495L64.7807 49.8719ZM64.7875 49.9032H64.2146V49.9383H64.7875H65.3604V49.9032H64.7875ZM64.7875 49.9383L64.2164 49.8928C64.2068 50.0137 64.1032 50.1774 63.8227 50.4751L64.2397 50.868L64.6567 51.2609C64.894 51.009 65.3123 50.5656 65.3586 49.9838L64.7875 49.9383ZM64.2397 50.868L63.7666 50.5448C63.5983 50.7912 63.3903 51.0336 63.1548 51.2847L63.5727 51.6766L63.9905 52.0685C64.2438 51.7985 64.4968 51.5073 64.7127 51.1912L64.2397 50.868ZM63.5727 51.6766L63.1106 51.3378C63.0035 51.4839 62.9113 51.6049 62.8145 51.7058L63.2279 52.1024L63.6414 52.499C63.7958 52.338 63.9271 52.1621 64.0347 52.0154L63.5727 51.6766ZM63.2279 52.1024L62.837 51.6835L62.8224 51.6972L63.2133 52.1161L63.6042 52.5349L63.6189 52.5212L63.2279 52.1024ZM63.2133 52.1161L62.8381 51.6831C62.7594 51.7513 62.6696 51.8207 62.5675 51.8951L62.9047 52.3582L63.2419 52.8214C63.3584 52.7366 63.4763 52.6462 63.5885 52.549L63.2133 52.1161ZM62.9047 52.3582L62.5001 51.9526C62.4034 52.0491 62.2889 52.1604 62.1834 52.2694L62.5951 52.6678L63.0068 53.0662C63.1033 52.9665 63.1973 52.8756 63.3093 52.7639L62.9047 52.3582ZM62.5951 52.6678L62.1772 52.276C62.1299 52.3263 62.0753 52.3822 62.022 52.4355L62.4272 52.8407L62.8323 53.2458C62.8913 53.1867 62.955 53.1216 63.0131 53.0597L62.5951 52.6678ZM62.4272 52.8407L62.022 52.4355C61.8958 52.5618 61.7423 52.7173 61.6365 52.8838C61.5184 53.0698 61.4156 53.3393 61.5082 53.6551L62.058 53.494L62.6078 53.3328C62.6208 53.3772 62.6216 53.4253 62.6126 53.4662C62.605 53.5008 62.5942 53.5132 62.6037 53.4982C62.6134 53.4829 62.6342 53.4548 62.6753 53.4088C62.716 53.3635 62.7667 53.3113 62.8323 53.2458L62.4272 52.8407ZM62.058 53.494L61.6957 53.9378C61.7803 54.0069 61.8653 54.077 61.9516 54.1483C62.0376 54.2192 62.1249 54.2913 62.2123 54.3626L62.5746 53.9188L62.9369 53.475C62.8523 53.4059 62.7673 53.3358 62.681 53.2645C62.595 53.1936 62.5077 53.1215 62.4203 53.0502L62.058 53.494ZM62.5746 53.9188L62.2101 54.3607C64.3669 56.1399 66.5304 57.9242 68.1366 60.0556L68.5941 59.7108L69.0517 59.366C67.3494 57.1071 65.0743 55.238 62.9392 53.4768L62.5746 53.9188ZM68.5941 59.7108L68.1364 60.0553C69.9652 62.4847 70.6623 64.8904 70.3269 67.4327L70.8949 67.5077L71.4629 67.5826C71.8438 64.6951 71.0304 61.9944 69.0519 59.3662L68.5941 59.7108ZM70.8949 67.5077L70.3269 67.4328C69.9571 70.2387 68.9273 72.6032 67.2819 74.4861L67.7133 74.8631L68.1447 75.2401C69.9553 73.1681 71.0671 70.5859 71.4629 67.5825L70.8949 67.5077ZM67.7133 74.8631L67.2824 74.4856C65.7893 76.1896 63.8382 77.4533 61.4717 78.232L61.6508 78.7762L61.8299 79.3204C64.3735 78.4834 66.5044 77.1122 68.1442 75.2407L67.7133 74.8631ZM61.6508 78.7762L61.4719 78.2319C59.8134 78.7769 57.9948 79.0529 56.1361 79.0529L56.1361 79.6258L56.1361 80.1987C58.1059 80.1987 60.0461 79.9065 61.8296 79.3205L61.6508 78.7762ZM56.1361 79.6258H56.7091V79.6151H56.1361H55.5632V79.6258H56.1361ZM56.1361 79.6151V79.0422C54.7864 79.0422 53.4193 78.896 52.0803 78.5996L51.9565 79.159L51.8326 79.7184C53.2542 80.0331 54.7043 80.188 56.1361 80.188V79.6151ZM51.9565 79.159L52.0798 78.5995C48.8744 77.8929 46.0476 76.3811 44.1073 74.367L43.6947 74.7645L43.2821 75.162C45.4022 77.3628 48.4422 78.971 51.8331 79.7185L51.9565 79.159ZM43.6947 74.7645L44.1075 74.3672C42.6471 72.8497 41.7109 71.0983 41.3125 69.1627L40.7514 69.2782L40.1902 69.3937C40.6347 71.5533 41.6799 73.4972 43.2819 75.1618L43.6947 74.7645ZM40.7514 69.2782L41.3126 69.1628C40.8778 67.0483 41.1019 64.745 42.0092 62.3018L41.4721 62.1024L40.935 61.9029C39.9667 64.5104 39.7049 67.0333 40.1902 69.3936L40.7514 69.2782ZM41.4721 62.1024L42.0323 62.2222C42.3566 60.7061 43.4093 59.6658 44.8319 58.4374L44.4574 58.0037L44.083 57.5701C42.6747 58.7862 41.3252 60.0497 40.9118 61.9825L41.4721 62.1024ZM44.4574 58.0037L44.8562 58.4151C46.2177 57.0952 48.14 56.4098 50.4636 56.4797L50.4809 55.9071L50.4981 55.3344C47.9256 55.2569 45.6826 56.0181 44.0587 57.5924L44.4574 58.0037ZM50.4809 55.9071L50.4639 56.4797C52.3821 56.5366 54.5415 57.1117 56.5286 58.1086L56.7856 57.5965L57.0425 57.0844C54.9271 56.0231 52.6049 55.3969 50.4979 55.3344L50.4809 55.9071ZM56.7856 57.5965L56.6147 58.1434C57.0628 58.2834 57.398 58.0537 57.5256 57.9453L57.1547 57.5086L56.7838 57.072C56.7838 57.0719 56.7864 57.0697 56.7918 57.0664C56.7972 57.0631 56.8078 57.0573 56.8236 57.0519C56.84 57.0464 56.8617 57.0415 56.8873 57.0407C56.9135 57.0399 56.9374 57.0437 56.9564 57.0497L56.7856 57.5965ZM57.1547 57.5086L57.603 57.8654C58.2649 57.0338 58.9835 56.3109 59.7736 55.5173L59.3676 55.1131L58.9616 54.7089C58.1781 55.4959 57.4143 56.2625 56.7064 57.1518L57.1547 57.5086ZM59.3676 55.1131L59.775 55.516C60.0846 55.2028 60.413 54.8744 60.7402 54.533L60.3266 54.1366L59.9129 53.7402C59.5939 54.0731 59.2758 54.3912 58.9602 54.7103L59.3676 55.1131ZM60.3266 54.1366L60.7425 54.5306C60.903 54.3611 61.1106 54.0743 61.0755 53.7122L60.5053 53.7674L59.935 53.8226C59.9275 53.7451 59.9496 53.6973 59.9522 53.6919C59.9539 53.6884 59.9528 53.6915 59.9458 53.7012C59.9388 53.7107 59.9276 53.7246 59.9106 53.7426L60.3266 54.1366ZM60.5053 53.7674L61.0766 53.7242C61.0635 53.5513 60.9986 53.4068 60.9302 53.2968L60.4438 53.5994L59.9573 53.9021C59.9617 53.9092 59.939 53.8762 59.934 53.8106L60.5053 53.7674ZM60.4438 53.5994L60.2441 53.0624C59.1549 53.4673 58.0833 53.7316 57.4781 53.8062L57.5483 54.3748L57.6184 54.9435C58.3369 54.8549 59.4978 54.5623 60.6434 54.1365L60.4438 53.5994ZM57.5483 54.3748V53.8019H57.5346V54.3748V54.9478H57.5483V54.3748ZM57.5346 54.3748L57.3772 54.9257L57.3909 54.9296L57.5483 54.3787L57.7056 53.8279L57.692 53.824L57.5346 54.3748ZM57.5483 54.3787V53.8058H57.5346V54.3787V54.9517H57.5483V54.3787ZM57.5346 54.3787L57.5449 53.8059C56.3844 53.785 55.3734 53.2269 54.6049 52.1195L54.1342 52.4461L53.6635 52.7728C54.616 54.1452 55.9521 54.9233 57.5243 54.9516L57.5346 54.3787ZM54.1342 52.4461L54.6051 52.1198C53.9646 51.1956 53.5333 49.9209 53.4481 48.6291L52.8764 48.6668L52.3047 48.7046C52.4021 50.1803 52.892 51.6596 53.6633 52.7725L54.1342 52.4461ZM52.8764 48.6668H53.4493V48.6571H52.8764H52.3035V48.6668H52.8764ZM52.8764 48.6571L53.4492 48.6468C53.3785 44.6918 54.7708 39.8967 57.6556 34.3755L57.1479 34.1102L56.6401 33.8449C53.7099 39.4529 52.228 44.4447 52.3035 48.6673L52.8764 48.6571ZM57.1479 34.1102L56.9873 33.5602C55.8995 33.8777 54.2809 34.2943 52.7803 34.6782L52.9223 35.2332L53.0643 35.7883C54.5589 35.4059 56.1982 34.9842 57.3084 34.6602L57.1479 34.1102ZM52.9223 35.2332L52.7799 34.6783C51.3367 35.0486 49.9116 35.4116 49.4491 35.5733L49.6381 36.1141L49.8271 36.6549C50.2292 36.5144 51.5791 36.1694 53.0647 35.7882L52.9223 35.2332ZM49.6381 36.1141L49.3051 35.6479C49.0197 35.8517 48.9184 36.1745 48.8708 36.3358L49.4203 36.4979L49.9698 36.66C49.9793 36.6279 49.9877 36.6023 49.9955 36.5816C50.0033 36.5608 50.0092 36.5483 50.0127 36.5417C50.0203 36.5272 50.0104 36.5522 49.9711 36.5803L49.6381 36.1141ZM49.4203 36.4979L48.8677 36.3469L48.7759 36.6828L49.3285 36.8338L49.8812 36.9848L49.973 36.6489L49.4203 36.4979ZM49.3285 36.8338L48.7796 36.6696C48.7648 36.7191 48.7519 36.7586 48.7386 36.793L49.2729 36.9998L49.8071 37.2067C49.836 37.1321 49.8588 37.0602 49.8774 36.998L49.3285 36.8338ZM49.2729 36.9998L48.764 36.7366L48.7493 36.7649L49.2582 37.0282L49.7671 37.2914L49.7817 37.2631L49.2729 36.9998ZM49.2582 37.0282L48.7612 36.7432C46.6973 40.3428 43.9118 45.1959 40.4116 48.9106L40.8285 49.3036L41.2455 49.6965C44.854 45.8669 47.7027 40.8928 49.7552 37.3131L49.2582 37.0282ZM40.8285 49.3036L40.4119 48.9102C38.5464 50.8861 36.6429 52.3534 34.7574 53.2894L35.0121 53.8026L35.2669 54.3157C37.301 53.306 39.3103 51.7461 41.2451 49.6969L40.8285 49.3036ZM35.0121 53.8026L34.7578 53.2892C32.967 54.1761 31.1251 54.6173 29.2621 54.6173V55.1903V55.7632C31.3119 55.7632 33.3271 55.2765 35.2664 54.316L35.0121 53.8026ZM29.2621 55.1903L29.8272 55.0961L29.8243 55.0785L29.2592 55.1727L28.6941 55.2669L28.697 55.2845L29.2621 55.1903ZM29.2592 55.1727V54.5998C28.8456 54.5998 28.4337 54.5799 28.0235 54.5365L27.9633 55.1063L27.9031 55.676C28.3567 55.724 28.8089 55.7456 29.2592 55.7456V55.1727ZM27.9633 55.1063V54.5334H27.9525V55.1063V55.6792H27.9633V55.1063ZM27.9525 55.1063L28.0396 54.54C23.6735 53.8691 20.6044 50.3566 19.7308 44.661L19.1645 44.7479L18.5982 44.8347C19.5229 50.8636 22.8605 54.9034 27.8655 55.6726L27.9525 55.1063ZM19.1645 44.7479L19.7307 44.6606C19.1817 41.1002 20.0793 37.1978 22.2142 33.9576L21.7358 33.6424L21.2573 33.3272C18.9778 36.787 18.0028 40.9737 18.5982 44.8352L19.1645 44.7479ZM21.7358 33.6424L22.2661 33.8591C22.7061 32.782 24.0877 31.5127 25.9943 30.6203L25.7514 30.1014L25.5085 29.5825C23.4857 30.5293 21.8024 31.9641 21.2054 33.4258L21.7358 33.6424ZM25.7514 30.1014L25.9938 30.6205C28.0824 29.6452 30.2668 29.3882 31.9821 29.8572L32.1332 29.3045L32.2843 28.7519C30.2486 28.1953 27.7826 28.5206 25.509 29.5823L25.7514 30.1014ZM32.1332 29.3045L31.9966 29.8609L32.0522 29.8746L32.1889 29.3182L32.3255 28.7618L32.2699 28.7481L32.1332 29.3045ZM32.1889 29.3182L31.7526 29.6895L31.7916 29.7354L32.2279 29.3641L32.6642 28.9928L32.6252 28.9469L32.1889 29.3182ZM32.2279 29.3641L31.802 29.7473C31.7928 29.7371 31.7937 29.7364 31.8033 29.7508C31.8116 29.7634 31.8228 29.7818 31.8354 29.8054C31.8613 29.8537 31.8859 29.91 31.9026 29.9632C31.9108 29.9892 31.916 30.0109 31.9189 30.0277C31.9219 30.0449 31.9216 30.0521 31.9217 30.0505C31.9217 30.049 31.9221 30.0312 31.9315 30.0031C31.9415 29.9732 31.9611 29.9336 31.9963 29.8955L32.4174 30.284L32.8385 30.6725C33.017 30.479 33.0632 30.2479 33.0672 30.077C33.0711 29.9065 33.0355 29.7459 32.9955 29.6191C32.9199 29.3787 32.7853 29.127 32.6538 28.9809L32.2279 29.3641ZM32.4174 30.284L31.9925 29.8996C32.0219 29.8671 32.0909 29.8089 32.1977 29.7995C32.3042 29.7901 32.3371 29.839 32.2745 29.791L31.9262 30.2459L31.5779 30.7008C31.7855 30.8598 32.0306 30.9646 32.2985 30.9409C32.5667 30.9172 32.7461 30.7746 32.8422 30.6684L32.4174 30.284ZM31.9262 30.2459L32.293 29.8058L32.2754 29.7912L31.9086 30.2313L31.5418 30.6714L31.5594 30.6861L31.9262 30.2459ZM31.9086 30.2313L32.3487 29.8645L32.3341 29.8469L31.894 30.2137L31.4538 30.5805L31.4685 30.5981L31.9086 30.2313ZM31.894 30.2137L32.326 29.8374C31.8369 29.2758 31.1155 29.0595 30.3938 29.0155C29.6661 28.9711 28.8547 29.0951 28.0684 29.3009C26.5011 29.7112 24.893 30.4852 24.0087 31.1413L24.35 31.6014L24.6914 32.0615C25.4401 31.5061 26.9095 30.7887 28.3586 30.4094C29.0806 30.2204 29.7622 30.1249 30.324 30.1592C30.8918 30.1938 31.2565 30.3542 31.4619 30.59L31.894 30.2137ZM24.35 31.6014L23.915 31.9743L23.9209 31.9811L24.3559 31.6082L24.7909 31.2354L24.785 31.2286L24.35 31.6014ZM24.3559 31.6082L23.9763 31.1791C21.3833 33.4724 19.8638 36.8735 19.6529 40.7234L20.225 40.7547L20.7971 40.7861C20.9937 37.1967 22.404 34.0994 24.7354 32.0374L24.3559 31.6082ZM20.225 40.7547L19.6529 40.7241C19.533 42.9624 19.8598 45.2899 20.5953 47.4674L21.1381 47.284L21.6809 47.1007C20.9904 45.0565 20.6853 42.8741 20.7971 40.7854L20.225 40.7547ZM21.1381 47.284L20.5956 47.4682C21.3386 49.6573 22.4871 51.6524 23.9248 53.2364L24.349 52.8514L24.7733 52.4664C23.4503 51.0087 22.3777 49.1537 21.6806 47.0999L21.1381 47.284ZM24.349 52.8514L23.9835 53.2926C25.1428 54.2529 26.524 54.8784 27.8896 55.0293L27.9525 54.4598L28.0155 53.8903C26.9017 53.7673 25.7258 53.2479 24.7145 52.4102L24.349 52.8514ZM27.9525 54.4598L27.907 55.0309C32.7092 55.4142 36.4693 53.248 39.5295 50.133C42.5756 47.0323 44.9819 42.9371 47.087 39.3587L46.5932 39.0682L46.0994 38.7777C43.979 42.3821 41.6416 46.348 38.7121 49.33C35.7967 52.2977 32.3492 54.2359 27.9981 53.8887L27.9525 54.4598ZM46.5932 39.0682L47.0861 39.3602C47.3447 38.9236 47.6332 38.4307 47.8791 38.0153L47.3861 37.7235L46.8931 37.4316C46.6195 37.8938 46.3823 38.3001 46.1002 38.7762L46.5932 39.0682ZM47.3861 37.7235L47.8891 37.9978C47.9813 37.8288 48.0683 37.6444 48.1506 37.4766L47.6361 37.2244L47.1217 36.9723C47.0283 37.1628 46.9596 37.3091 46.8832 37.4491L47.3861 37.7235ZM47.6361 37.2244L48.152 37.4737C48.3066 37.1536 48.4455 36.8672 48.6018 36.625L48.1205 36.3143L47.6392 36.0036C47.4373 36.3163 47.2677 36.6701 47.1203 36.9752L47.6361 37.2244ZM48.1205 36.3143L48.6241 36.5875C48.6165 36.6014 48.6073 36.6126 48.5998 36.6199C48.5933 36.6262 48.5912 36.6266 48.6007 36.6205L48.2895 36.1395L47.9782 35.6585C47.8752 35.7251 47.7256 35.8409 47.6169 36.0411L48.1205 36.3143ZM48.2895 36.1395L48.8084 36.3822L48.8367 36.3217L48.3178 36.0789L47.7988 35.8362L47.7705 35.8968L48.2895 36.1395ZM48.3178 36.0789L48.8378 36.3194C48.8499 36.2933 48.8761 36.2419 48.9129 36.1776L48.4154 35.8934L47.918 35.6092C47.8709 35.6916 47.8278 35.7734 47.7977 35.8385L48.3178 36.0789ZM48.4154 35.8934L48.9224 36.1602C48.9549 36.0985 49.0145 35.9871 49.0658 35.8831C49.0915 35.8311 49.1189 35.7732 49.1419 35.7186C49.1565 35.6837 49.198 35.5859 49.212 35.4799L48.644 35.4051L48.0759 35.3303C48.0792 35.3052 48.0837 35.2869 48.0859 35.2785C48.0883 35.2691 48.0902 35.2633 48.0907 35.2618C48.0916 35.2593 48.0904 35.2631 48.0854 35.275C48.0755 35.2986 48.0596 35.3328 48.0383 35.376C47.9955 35.4626 47.9462 35.5549 47.9084 35.6266L48.4154 35.8934ZM48.644 35.4051L49.2121 35.4788L49.219 35.426L48.6508 35.3524L48.0826 35.2787L48.0758 35.3315L48.644 35.4051ZM48.6508 35.3524L49.209 35.2236C49.2312 35.3197 49.2041 35.3941 49.1906 35.4221C49.18 35.4442 49.1669 35.4579 49.1887 35.4312L48.7455 35.0682L48.3023 34.7052C48.3011 34.7066 47.9889 35.032 48.0925 35.4812L48.6508 35.3524ZM48.7455 35.0682L49.1767 35.4455L49.1835 35.4377L48.7524 35.0604L48.3212 34.6831L48.3143 34.6909L48.7455 35.0682ZM48.7524 35.0604L49.1661 35.4567C49.4632 35.1465 49.8148 34.565 50.0351 34.1628L49.5326 33.8875L49.0302 33.6123C48.8079 34.018 48.5192 34.4755 48.3386 34.6641L48.7524 35.0604ZM49.5326 33.8875L50.035 34.1629C51.7393 31.0542 53.7282 28.0464 55.6659 25.1135L55.1879 24.7977L54.7099 24.4819C52.777 27.4076 50.7611 30.4548 49.0302 33.6121L49.5326 33.8875ZM55.1879 24.7977L55.6655 25.1142L55.7211 25.0302L55.2436 24.7137L54.766 24.3972L54.7103 24.4812L55.1879 24.7977ZM55.2436 24.7137L55.7038 25.0549C55.9799 24.6823 56.1167 24.3057 56.2334 23.9933L55.6967 23.7928L55.16 23.5923C55.0379 23.9192 54.9497 24.148 54.7833 24.3726L55.2436 24.7137ZM55.6967 23.7928L56.2331 23.994C56.3614 23.6518 56.466 23.3799 56.6712 23.1117L56.2162 22.7635L55.7612 22.4153C55.4397 22.8355 55.2848 23.2595 55.1602 23.5916L55.6967 23.7928ZM56.2162 22.7635L56.6213 23.1686L56.6389 23.1511L56.2338 22.7459L55.8287 22.3408L55.8111 22.3584L56.2162 22.7635ZM56.2338 22.7459L56.6434 23.1465C58.1541 21.6014 60.066 20.0318 62.1676 18.6134L61.8471 18.1385L61.5266 17.6636C59.3712 19.1183 57.3973 20.7365 55.8241 22.3454L56.2338 22.7459ZM61.8471 18.1385L62.1313 18.6359L62.145 18.6281L61.8608 18.1307L61.5765 17.6333L61.5628 17.6411L61.8471 18.1385ZM61.8608 18.1307L62.1432 18.6292C62.17 18.614 62.1847 18.606 62.198 18.5998C62.212 18.5933 62.2089 18.5965 62.192 18.5999C62.1751 18.6033 62.1228 18.6113 62.0524 18.5919C61.9729 18.5699 61.9087 18.5233 61.8686 18.4726L62.3178 18.117L62.767 17.7614C62.5241 17.4546 62.1848 17.4324 61.9654 17.4766C61.7781 17.5144 61.6211 17.608 61.5783 17.6322L61.8608 18.1307ZM62.3178 18.117L61.8659 18.4693C61.8469 18.4448 61.8273 18.4118 61.8131 18.3707C61.7989 18.3294 61.7929 18.2882 61.793 18.2505C61.7931 18.1784 61.815 18.1345 61.8177 18.1291C61.8208 18.123 61.8177 18.1305 61.7984 18.1544C61.7794 18.1779 61.7574 18.202 61.7245 18.2377L62.1459 18.6258L62.5673 19.014C62.6155 18.9616 62.7532 18.8186 62.8407 18.6452C62.9415 18.4454 63.0252 18.0926 62.7696 17.7648L62.3178 18.117ZM62.1459 18.6258L61.7326 18.2291C59.3791 20.6812 56.6486 23.6938 54.3689 27.3199L54.8539 27.6248L55.3389 27.9298C57.5551 24.4048 60.2202 21.4596 62.5593 19.0225L62.1459 18.6258ZM54.8539 27.6248L54.3755 27.3097L54.2134 27.5558L54.6918 27.8709L55.1702 28.1861L55.3324 27.94L54.8539 27.6248ZM54.6918 27.8709L54.2131 27.5561C53.3524 28.8646 52.4412 30.2468 51.7063 31.6305L52.2123 31.8993L52.7183 32.168C53.4234 30.8404 54.3033 29.5042 55.1705 28.1858L54.6918 27.8709ZM52.2123 31.8993L51.6999 31.643C51.5997 31.8433 51.4456 32.1517 51.3403 32.4761C51.2416 32.7798 51.1444 33.2156 51.2843 33.626L51.8266 33.4412L52.3689 33.2565C52.3543 33.2138 52.3482 33.0823 52.4301 32.8301C52.5052 32.5986 52.6212 32.3626 52.7247 32.1555L52.2123 31.8993ZM51.8266 33.4412H51.2536V33.4491H51.8266H52.3995V33.4412H51.8266ZM51.8266 33.4491L51.3692 33.794C51.5109 33.982 51.7569 34.0825 52.0971 34.1408C52.4633 34.2037 53.0634 34.2376 54.0731 34.1782L54.0395 33.6063L54.0058 33.0344C53.0352 33.0915 52.5337 33.0532 52.2909 33.0115C52.0222 32.9654 52.1519 32.929 52.284 33.1041L51.8266 33.4491ZM54.0395 33.6063L54.0732 34.1782C55.2858 34.1066 56.6874 33.9321 57.5114 33.8269L57.4389 33.2586L57.3663 32.6903C56.5397 32.7958 55.1743 32.9654 54.0057 33.0344L54.0395 33.6063ZM57.4389 33.2586L57.512 33.8269C57.5897 33.8169 57.6031 33.816 57.6858 33.8055L57.6137 33.2371L57.5416 32.6688C57.5139 32.6723 57.4104 32.6846 57.3657 32.6904L57.4389 33.2586ZM57.6137 33.2371L58.1171 33.5107C60.7405 28.6836 63.9824 24.2471 66.2942 21.3124L65.8441 20.9578L65.3941 20.6033C63.0623 23.5634 59.777 28.0567 57.1103 32.9636L57.6137 33.2371ZM65.8441 20.9578L66.2847 21.3241L66.3521 21.243L65.9115 20.8768L65.471 20.5105L65.4036 20.5916L65.8441 20.9578ZM65.9115 20.8768L66.3299 21.2682C66.5378 21.046 66.7832 20.7755 67.038 20.4889L66.6098 20.1082L66.1816 19.7276C65.9311 20.0094 65.6924 20.2724 65.4931 20.4854L65.9115 20.8768ZM61.1449 54.1893L61.0692 53.6214C61.0008 53.6305 60.9031 53.6513 60.8008 53.7077C60.6923 53.7676 60.6109 53.8496 60.5521 53.9377L61.0287 54.2557L61.5053 54.5737C61.4746 54.6197 61.425 54.672 61.3544 54.711C61.29 54.7465 61.2364 54.7551 61.2206 54.7572L61.1449 54.1893ZM61.0287 54.2557L60.5284 53.9766C60.1975 54.5696 59.686 55.1153 59.1283 55.7017L59.5434 56.0965L59.9585 56.4914C60.4966 55.9257 61.1153 55.2765 61.529 54.5348L61.0287 54.2557ZM59.5434 56.0965L59.1279 55.702C58.4896 56.3742 57.7136 57.1774 57.3592 58.1266L57.8959 58.327L58.4326 58.5274C58.6894 57.8398 59.2764 57.2097 59.9588 56.491L59.5434 56.0965ZM57.8959 58.327L57.3556 58.5176C57.4388 58.7534 57.5927 58.9445 57.7223 59.0828C57.8558 59.2254 58.0084 59.3578 58.1269 59.4611L58.5033 59.0291L58.8797 58.5972C58.7525 58.4863 58.6454 58.3922 58.5586 58.2996C58.4679 58.2027 58.4409 58.1499 58.4362 58.1364L57.8959 58.327ZM58.5033 59.0291L58.1281 59.4621C58.1843 59.5107 58.2247 59.5454 58.2649 59.5828L58.6547 59.1629L59.0445 58.7431C58.9864 58.6891 58.9278 58.6388 58.8786 58.5962L58.5033 59.0291ZM58.6547 59.1629L58.3049 59.6167C59.6765 60.6741 60.3598 62.5462 60.015 64.5409L60.5795 64.6385L61.144 64.7361C61.5508 62.3828 60.7584 60.0614 59.0045 58.7092L58.6547 59.1629ZM60.5795 64.6385L60.0116 64.5627C59.8218 65.9843 59.3883 67.4359 58.6946 68.5337C58.0048 69.6252 57.0996 70.3112 55.9501 70.3751L55.9818 70.9471L56.0136 71.5191C57.6527 71.4281 58.8496 70.4333 59.6632 69.1459C60.4728 67.8648 60.9438 66.2395 61.1474 64.7143L60.5795 64.6385ZM55.9818 70.9471V70.3742H55.932V70.9471V71.52H55.9818V70.9471ZM55.932 70.9471L56.1369 70.4121L56.091 70.3945L55.8861 70.9295L55.6812 71.4646L55.7271 71.4821L55.932 70.9471ZM55.8861 70.9295L56.1118 70.4029C55.9508 70.3339 55.7881 70.2727 55.6326 70.2139L55.4301 70.7498L55.2276 71.2858C55.3879 71.3464 55.5266 71.3988 55.6605 71.4561L55.8861 70.9295ZM55.4301 70.7498L55.6326 70.2139C54.9648 69.9616 54.4424 69.7454 54.1542 69.2908L53.6703 69.5975L53.1864 69.9042C53.7131 70.7351 54.6309 71.0604 55.2276 71.2858L55.4301 70.7498ZM53.6703 69.5975L54.1375 69.2659C53.226 67.9816 52.9399 66.5348 53.29 64.8941C53.6448 63.2309 54.6593 61.3499 56.3942 59.2614L55.9535 58.8953L55.5128 58.5293C53.7144 60.6941 52.5776 62.7417 52.1693 64.655C51.7563 66.5908 52.0953 68.3684 53.2031 69.9291L53.6703 69.5975ZM55.9535 58.8953L56.4357 59.2047C56.5986 58.9508 56.6904 58.6464 56.5887 58.3341C56.4959 58.0494 56.2823 57.895 56.1808 57.829L55.8686 58.3094L55.5563 58.7898C55.5703 58.7988 55.5657 58.7977 55.5543 58.7856C55.5413 58.7718 55.5157 58.7398 55.4992 58.6891C55.4816 58.635 55.4834 58.588 55.4891 58.5606C55.4937 58.5383 55.4973 58.5455 55.4713 58.586L55.9535 58.8953ZM55.8686 58.3094L56.1752 57.8255C53.6298 56.2125 50.3689 55.77 47.8436 56.7678L48.0541 57.3006L48.2646 57.8335C50.3966 56.9911 53.2746 57.3439 55.5619 58.7933L55.8686 58.3094ZM48.0541 57.3006L47.5417 57.0444L47.5378 57.0522L48.0502 57.3084L48.5626 57.5647L48.5665 57.5568L48.0541 57.3006ZM48.0502 57.3084L47.821 56.7834C45.842 57.6474 44.3477 59.3204 43.3429 61.2291C42.3375 63.1392 41.798 65.3285 41.7557 67.2991L42.3285 67.3114L42.9013 67.3237C42.9398 65.5291 43.4349 63.5143 44.3569 61.7629C45.2796 60.0101 46.6058 58.5642 48.2794 57.8335L48.0502 57.3084ZM42.3285 67.3114L41.7558 67.2971C41.6851 70.1321 42.7273 72.7572 44.7419 74.8716L45.1566 74.4764L45.5714 74.0812C43.7575 72.1774 42.8385 69.8435 42.9013 67.3256L42.3285 67.3114ZM45.1566 74.4764L44.7417 74.8714C46.5646 76.7863 49.1509 78.2271 52.0126 78.9489L52.1527 78.3934L52.2929 77.8379C49.6121 77.1617 47.226 75.8193 45.5716 74.0814L45.1566 74.4764ZM52.1527 78.3934L52.0122 78.9488C55.0657 79.7213 58.2655 79.6486 61.0301 78.7332L60.85 78.1893L60.6699 77.6454C58.1308 78.4862 55.1547 78.5618 52.2932 77.838L52.1527 78.3934ZM60.85 78.1893L61.0306 78.733C64.0942 77.7154 66.4688 75.7254 67.8724 72.9667L67.3617 72.7069L66.8511 72.4471C65.5923 74.9213 63.464 76.7173 60.6694 77.6456L60.85 78.1893ZM67.3617 72.7069L67.8506 73.0056L67.8613 72.988L67.3725 72.6893L66.8836 72.3905L66.8729 72.4081L67.3617 72.7069ZM67.3725 72.6893L67.8567 72.9956C69.5815 70.2688 70.2372 67.0483 69.6997 63.9337L69.1352 64.0311L68.5706 64.1285C69.0586 66.9567 68.465 69.8905 66.8883 72.383L67.3725 72.6893ZM69.1352 64.0311L69.6998 63.9341C69.1503 60.7363 67.3707 57.9572 64.6986 56.1069L64.3725 56.578L64.0463 57.049C66.467 58.7252 68.0734 61.2355 68.5705 64.1281L69.1352 64.0311ZM64.3725 56.578V56.005H64.3656V56.578V57.1509H64.3725V56.578ZM64.3656 56.578L64.7374 56.1421L64.671 56.0854L64.2992 56.5213L63.9274 56.9572L63.9938 57.0139L64.3656 56.578ZM64.2992 56.5213L64.5766 56.02C64.5494 56.005 64.482 55.9581 64.3455 55.8411C64.2158 55.7301 64.0519 55.5806 63.8361 55.3825L63.4486 55.8045L63.0612 56.2266C63.2739 56.4218 63.4527 56.5851 63.6 56.7113C63.7404 56.8316 63.884 56.9464 64.0219 57.0227L64.2992 56.5213ZM63.4486 55.8045L63.836 55.3824C63.4991 55.0733 63.0263 54.6384 62.5736 54.2883C62.3479 54.1138 62.1107 53.9473 61.8854 53.8259C61.6889 53.7199 61.3897 53.5844 61.0794 53.6201L61.1449 54.1893L61.2105 54.7585C61.1426 54.7663 61.1674 54.7406 61.3418 54.8345C61.4874 54.9131 61.6681 55.0367 61.8726 55.1948C62.2802 55.51 62.7168 55.9106 63.0613 56.2267L63.4486 55.8045ZM57.2006 59.4862L57.1233 58.9185C56.5363 58.9984 56.0099 59.3421 55.5662 59.813C55.1191 60.2875 54.7206 60.9272 54.3864 61.6846L54.9106 61.9159L55.4347 62.1471C55.7327 61.4717 56.0666 60.9528 56.4002 60.5988C56.7371 60.2411 57.0396 60.0863 57.2779 60.0539L57.2006 59.4862ZM54.9106 61.9159L54.3865 61.6844C53.7418 63.1441 53.3741 64.9584 53.3963 66.5576L53.9691 66.5496L54.542 66.5417C54.5221 65.1062 54.857 63.4554 55.4346 62.1473L54.9106 61.9159ZM53.9691 66.5496L53.3963 66.5575C53.4036 67.0963 53.4664 68.0389 53.7926 68.8878C54.1214 69.7438 54.7749 70.6248 56.0028 70.7374L56.0551 70.1668L56.1074 69.5963C55.4952 69.5402 55.1127 69.1291 54.8622 68.4769C54.6089 67.8175 54.5488 67.0359 54.542 66.5418L53.9691 66.5496ZM56.0551 70.1668L56.0228 70.7388C56.8478 70.7854 57.6648 70.3535 58.3183 69.5619C58.9731 68.7688 59.497 67.5833 59.7775 65.996L59.2133 65.8963L58.6491 65.7966C58.3921 67.2508 57.9288 68.2339 57.4347 68.8324C56.9393 69.4324 56.446 69.615 56.0873 69.5948L56.0551 70.1668ZM59.2133 65.8963L59.7776 65.9955C60.0386 64.51 60.0026 62.943 59.656 61.6934L59.1039 61.8465L58.5518 61.9996C58.8443 63.0541 58.8867 64.445 58.649 65.7972L59.2133 65.8963ZM59.1039 61.8465L59.6561 61.6937C59.4016 60.7739 58.8022 59.3805 57.3846 58.9392L57.2143 59.4862L57.0439 60.0332C57.8601 60.2873 58.3145 61.1419 58.5517 61.9993L59.1039 61.8465ZM57.2143 59.4862V58.9132H57.2006V59.4862V60.0591H57.2143V59.4862ZM21.9643 33.786L22.4468 34.0949C22.452 34.0867 22.4562 34.0798 22.459 34.0751C22.4616 34.0708 22.4638 34.0668 22.4643 34.0661C22.4652 34.0645 22.4643 34.066 22.4631 34.0681C22.4617 34.0704 22.4589 34.075 22.4551 34.0809L21.9731 33.7713L21.491 33.4618C21.4857 33.47 21.4814 33.4771 21.4786 33.4818C21.4759 33.4863 21.4736 33.4904 21.4731 33.4912C21.472 33.493 21.4729 33.4915 21.474 33.4896C21.4754 33.4873 21.4781 33.4828 21.4817 33.4771L21.9643 33.786ZM21.9731 33.7713L22.1773 33.236L22.1031 33.2077L21.8988 33.743L21.6946 34.2783L21.7688 34.3066L21.9731 33.7713ZM21.8988 33.743L21.5843 34.2219L21.6498 34.2649L21.9643 33.786L22.2788 33.3071L22.2133 33.2641L21.8988 33.743Z" fill="white"/>
</svg>
